<svg xmlns="http://www.w3.org/2000/svg" xmlns:xlink="http://www.w3.org/1999/xlink" viewBox="0 0 512 512"><defs><style>.cls-1{fill:url(#linear-gradient);}.cls-2{fill:url(#linear-gradient-2);}.cls-3{fill:url(#linear-gradient-3);}.cls-4{fill:url(#linear-gradient-4);}</style><linearGradient id="linear-gradient" x1="256" y1="4" x2="256" y2="508.67" gradientUnits="userSpaceOnUse"><stop offset="0" stop-color="#0098fb"/><stop offset="0.72" stop-color="#005fa7"/></linearGradient><linearGradient id="linear-gradient-2" x1="167.91" y1="4" x2="167.91" y2="508.67" xlink:href="#linear-gradient"/><linearGradient id="linear-gradient-3" x1="310.99" y1="4" x2="310.99" y2="508.67" xlink:href="#linear-gradient"/><linearGradient id="linear-gradient-4" x1="396.39" y1="4" x2="396.39" y2="508.67" xlink:href="#linear-gradient"/></defs><title>Asset 7</title><g id="Layer_2" data-name="Layer 2"><g id="Layer_1-2" data-name="Layer 1"><path class="cls-1" d="M509.07,93.92l-91-91A10,10,0,0,0,411,0H114A30,30,0,0,0,84,30V49.06a132.31,132.31,0,0,0-84,123,10,10,0,0,0,10,10H132.09a10,10,0,0,0,10-10V50a10,10,0,0,0-10-10A132,132,0,0,0,104,43V30a10,10,0,0,1,10-10H401V81a30,30,0,0,0,30,30h61V482a10,10,0,0,1-10,10H114a10,10,0,0,1-10-10V308.33a10,10,0,0,0-20,0V482a30,30,0,0,0,30,30H482a30,30,0,0,0,30-30V101A10,10,0,0,0,509.07,93.92Zm-387-33.48V162.09H20.44A112.28,112.28,0,0,1,122.09,60.44ZM431,91a10,10,0,0,1-10-10V34.14L477.87,91Z"/><path class="cls-2" d="M167.91,75.82a10,10,0,0,0-10,10V197.91H45.82a10,10,0,0,0-10,10C35.82,280.74,95.07,340,167.91,340S300,280.74,300,207.91,240.74,75.82,167.91,75.82Zm10,20.44a111.58,111.58,0,0,1,61.83,25.67l-61.83,61.84ZM167.91,320A112.24,112.24,0,0,1,56.26,217.91H167.91A10,10,0,0,0,175,215h0l78.91-78.91a112,112,0,0,1-86,183.93Z"/><path class="cls-3" d="M438.07,315.61a30,30,0,0,0-27.62,41.69l-57.62,57.61a30,30,0,0,0-25.9-.14l-38.26-38.25a30,30,0,1,0-55.17,1.64l-36.7,36.7A30,30,0,1,0,211,429l36.49-36.49a29.94,29.94,0,0,0,28.1-.81l37.17,37.18a30,30,0,1,0,54.17.28L424,372.07a30,30,0,1,0,14.11-56.46ZM183.9,451.94a10,10,0,1,1,6.92-17.21l.12.13.15.14a10,10,0,0,1-7.19,16.94Zm76.83-76.34a10,10,0,1,1,10-10A10,10,0,0,1,260.73,375.6Zm79,76.3a10,10,0,1,1,10-10A10,10,0,0,1,339.74,451.9Zm98.33-96.3a10,10,0,1,1,10-10A10,10,0,0,1,438.07,355.6Z"/><path class="cls-4" d="M457.46,139H335.31a10,10,0,0,0,0,20H457.46a10,10,0,1,0,0-20Z"/><path class="cls-4" d="M457.46,187H335.31a10,10,0,1,0,0,20H457.46a10,10,0,1,0,0-20Z"/><path class="cls-4" d="M457.46,235H335.31a10,10,0,1,0,0,20H457.46a10,10,0,1,0,0-20Z"/></g></g></svg>