<svg xmlns="http://www.w3.org/2000/svg" xmlns:xlink="http://www.w3.org/1999/xlink" viewBox="0 0 512 389.97"><defs><style>.cls-1{fill:url(#linear-gradient);}.cls-2{fill:url(#linear-gradient-2);}.cls-3{fill:url(#linear-gradient-3);}.cls-4{fill:url(#linear-gradient-4);}.cls-5{fill:url(#linear-gradient-5);}.cls-6{fill:url(#linear-gradient-6);}</style><linearGradient id="linear-gradient" x1="256.53" y1="-2.01" x2="256.53" y2="388.95" gradientUnits="userSpaceOnUse"><stop offset="0" stop-color="#0098fb"/><stop offset="0.72" stop-color="#005fa7"/></linearGradient><linearGradient id="linear-gradient-2" x1="77.85" y1="-2.01" x2="77.85" y2="388.95" xlink:href="#linear-gradient"/><linearGradient id="linear-gradient-3" x1="53.27" y1="-2.01" x2="53.27" y2="388.95" xlink:href="#linear-gradient"/><linearGradient id="linear-gradient-4" x1="103.01" y1="-2.01" x2="103.01" y2="388.95" xlink:href="#linear-gradient"/><linearGradient id="linear-gradient-5" x1="256" y1="-2.01" x2="256" y2="388.95" xlink:href="#linear-gradient"/><linearGradient id="linear-gradient-6" x1="321.48" y1="-2.01" x2="321.48" y2="388.95" xlink:href="#linear-gradient"/></defs><title>Asset 4</title><g id="Layer_2" data-name="Layer 2"><g id="Layer_1-2" data-name="Layer 1"><path class="cls-1" d="M271.72,276.06H241.34a7.6,7.6,0,0,0,0,15.19h30.38a7.6,7.6,0,0,0,0-15.19Z"/><path class="cls-2" d="M77.31,72a4.86,4.86,0,0,0,.54,0,7.32,7.32,0,1,0,.55-14.63,5,5,0,0,0-.55,0A7.32,7.32,0,1,0,77.31,72Z"/><path class="cls-3" d="M53,72a7.32,7.32,0,0,0,.55-14.63,5,5,0,0,0-.55,0A7.32,7.32,0,0,0,53,72Z"/><path class="cls-4" d="M102.74,72a7.32,7.32,0,1,0,.54-14.63,4.86,4.86,0,0,0-.54,0,7.32,7.32,0,0,0,0,14.63Z"/><path class="cls-5" d="M474.06,0H38A38,38,0,0,0,0,38V276.06a38,38,0,0,0,38,38H203.06a99,99,0,0,1-21.33,54.76l-4.8,6H150.2a7.59,7.59,0,1,0,0,15.18H362.86a7.59,7.59,0,0,0,0-15.18H336.12l-4.79-6A99.12,99.12,0,0,1,310,314h134.2a7.12,7.12,0,0,0,2.2.34,7,7,0,0,0,2.18-.34H474a38,38,0,0,0,38-38V38A38,38,0,0,0,474.06,0ZM38,15.23H474.06a22.83,22.83,0,0,1,21.39,15.19H16.58A22.83,22.83,0,0,1,38,15.23ZM15.19,97.79h215.3a102.44,102.44,0,0,0,54.74,155.49h-270ZM315.26,240.34a85,85,0,1,1,85-85A85,85,0,0,1,315.26,240.34Zm67.08,12.94H345.22a102,102,0,0,0,25.33-11.75ZM316.78,374.79H196.27a114.81,114.81,0,0,0,22-60.76h76.4A114.44,114.44,0,0,0,316.78,374.79ZM38,298.86a22.8,22.8,0,0,1-22.78-22.8v-7.59H397.53l30.38,30.39Zm408.47-1.92L382.3,232.77a104,104,0,0,0,10-9.93L456.41,287Zm50.39-20.88a22.8,22.8,0,0,1-22.78,22.8h-9.11l6.8-6.81a7.24,7.24,0,0,0,0-10.24h0l-13.32-13.32h38.41Zm0-22.78H443.22l-42.1-42.09A102.43,102.43,0,0,0,400,97.79h96.81Zm0-170.62H387.45a102.42,102.42,0,0,0-144.43,0H15.19V45.58H496.83Z"/><path class="cls-6" d="M377.65,175.4l-23.58-6.26a30.39,30.39,0,0,0-4-17.46l-.08-.14,15.19-8.81a3.41,3.41,0,1,0-3.42-5.9l-15.19,8.81-9.41-16.2,5.05-19a3.41,3.41,0,1,0-6.59-1.75l-4.94,18.6a26.35,26.35,0,0,0-27.06-9.21l6.55-24.66a3.41,3.41,0,0,0-6.6-1.75l-7.41,27.94-27.71-7.35a3.41,3.41,0,1,0-1.75,6.59l24.42,6.48a26.36,26.36,0,0,0-5.42,28.06l-18.6-4.94a3.41,3.41,0,0,0-1.75,6.6l19,5,9.41,16.21-15.38,8.92a3.41,3.41,0,1,0,3.43,5.9l15.37-8.92.08.13a30.3,30.3,0,0,0,13,12.1l-6.31,23.76a3.41,3.41,0,0,0,6.6,1.75l6.16-23.22a30.46,30.46,0,0,0,36.13-20.85L375.9,182a3.36,3.36,0,0,0,2.59-.34,3.42,3.42,0,0,0-.84-6.25Zm-77.4-48.67A19.48,19.48,0,0,1,324.84,131L291.75,150.2A19.47,19.47,0,0,1,300.25,126.73Zm2.87,52.17-11.9-20.5,17.55-10.19L332.45,189A23.74,23.74,0,0,1,303.12,178.9Zm35.23,6.68-23.68-40.8,17.56-10.18,11.9,20.5A23.75,23.75,0,0,1,338.35,185.58Z"/></g></g></svg>