<svg xmlns="http://www.w3.org/2000/svg" xmlns:xlink="http://www.w3.org/1999/xlink" viewBox="0 0 512 512"><defs><style>.cls-1{fill:url(#linear-gradient);}.cls-2{fill:url(#linear-gradient-2);}.cls-3{fill:url(#linear-gradient-3);}</style><linearGradient id="linear-gradient" x1="157.49" y1="-13" x2="157.49" y2="519.38" gradientUnits="userSpaceOnUse"><stop offset="0" stop-color="#0098fb"/><stop offset="0.72" stop-color="#005fa7"/></linearGradient><linearGradient id="linear-gradient-2" x1="354.74" y1="-13" x2="354.74" y2="519.38" xlink:href="#linear-gradient"/><linearGradient id="linear-gradient-3" x1="256" y1="-13" x2="256" y2="519.38" xlink:href="#linear-gradient"/></defs><title>Asset 5</title><g id="Layer_2" data-name="Layer 2"><g id="Layer_1-2" data-name="Layer 1"><path class="cls-1" d="M90.05,396a41.72,41.72,0,0,0-20.17,5.15A236.45,236.45,0,0,1,20,256C20,125.87,125.87,20,256,20a237.47,237.47,0,0,1,47,4.68,10,10,0,0,0,4-19.61A258.44,258.44,0,0,0,256,0,256,256,0,0,0,55.09,414.65a42,42,0,1,0,35-18.7Zm15.56,57.55A22,22,0,1,1,112.05,438,21.85,21.85,0,0,1,105.61,453.5Z"/><path class="cls-2" d="M456.9,97.34a41.93,41.93,0,1,0-14.78,13.56A236.47,236.47,0,0,1,492,256c0,130.13-105.87,236-236,236a237.49,237.49,0,0,1-46.55-4.59A10,10,0,1,0,205.52,507,258.24,258.24,0,0,0,256,512,256,256,0,0,0,456.9,97.34Zm-19.39-7.73a22,22,0,1,1,0-31.11A21.9,21.9,0,0,1,437.51,89.61Z"/><path class="cls-3" d="M214.73,428a10,10,0,0,0,10,10h62.53a10,10,0,0,0,10-10V408.61a156.73,156.73,0,0,0,37.53-15.55l13.69,13.69a10,10,0,0,0,14.15,0l44.19-44.22a10,10,0,0,0,0-14.14L393.15,334.7a156.73,156.73,0,0,0,15.55-37.53H428a10,10,0,0,0,10-10V224.64a10,10,0,0,0-10-10H408.7a156.83,156.83,0,0,0-15.55-37.52l13.6-13.6a10,10,0,0,0,0-14.15l-44.23-44.19a10,10,0,0,0-14.14,0l-13.58,13.58a156.73,156.73,0,0,0-37.53-15.55V84a10,10,0,0,0-10-10H224.73a10,10,0,0,0-10,10v19.21a156.83,156.83,0,0,0-37.52,15.55l-13.58-13.58a10,10,0,0,0-14.15,0l-44.22,44.2a10,10,0,0,0,0,14.14l13.6,13.6a156.83,156.83,0,0,0-15.55,37.52H84a10,10,0,0,0-10,10l0,62.53a10,10,0,0,0,10,10H103.3a156.73,156.73,0,0,0,15.55,37.53l-13.67,13.68a10,10,0,0,0,0,14.14l44.2,44.22a10,10,0,0,0,7.07,2.94h0a10,10,0,0,0,7.07-2.93l13.68-13.69a157.07,157.07,0,0,0,37.53,15.55Zm-33.6-56a10,10,0,0,0-12.5,1.33l-12.18,12.17-30.06-30.08,12.16-12.17a10,10,0,0,0,1.33-12.49,137.06,137.06,0,0,1-18.94-45.72,10,10,0,0,0-9.78-7.9H94l0-42.53h17.15a10,10,0,0,0,9.78-7.89A137,137,0,0,1,139.88,181a10,10,0,0,0-1.33-12.5l-12.08-12.09,30.08-30.06,12.08,12.08a10,10,0,0,0,12.5,1.33,136.63,136.63,0,0,1,45.71-18.94,10,10,0,0,0,7.89-9.78V94h42.53v17.07a10,10,0,0,0,7.9,9.78,137.22,137.22,0,0,1,45.71,18.94,10,10,0,0,0,12.5-1.33l12.08-12.07,30.08,30.06-12.09,12.09a10,10,0,0,0-1.33,12.5,136.8,136.8,0,0,1,18.94,45.71,10,10,0,0,0,9.78,7.89H418v42.53H400.83a10,10,0,0,0-9.78,7.9,136.8,136.8,0,0,1-18.94,45.71,10,10,0,0,0,1.33,12.5l12.17,12.17-30.06,30.08-12.18-12.17a10,10,0,0,0-12.5-1.33A137.22,137.22,0,0,1,285.16,391a10,10,0,0,0-7.9,9.78V418H234.73V400.75a10,10,0,0,0-7.89-9.78A137,137,0,0,1,181.13,372Z"/><path class="cls-3" d="M338.63,256A82.63,82.63,0,1,0,256,338.63,82.73,82.73,0,0,0,338.63,256Zm-145.26,0A62.63,62.63,0,1,1,256,318.63,62.69,62.69,0,0,1,193.37,256Z"/></g></g></svg>