<svg xmlns="http://www.w3.org/2000/svg" xmlns:xlink="http://www.w3.org/1999/xlink" viewBox="0 0 512 512"><defs><style>.cls-1{fill:url(#linear-gradient);}</style><linearGradient id="linear-gradient" x1="256" y1="16.21" x2="256" y2="496.47" gradientUnits="userSpaceOnUse"><stop offset="0" stop-color="#4498f9"/><stop offset="0.72" stop-color="#235fa4"/></linearGradient></defs><title>Asset 67</title><g id="Layer_2" data-name="Layer 2"><g id="Layer_1-2" data-name="Layer 1"><path class="cls-1" d="M256,0C114.62,0,0,114.62,0,256S114.62,512,256,512,512,397.39,512,256,397.38,0,256,0ZM175,221.69l48,16.22v71.32L175,292Zm-63.83,87.54L63.15,292V221.69l48,16.22Zm-43-92.74,48.44-13.72,45.12,14.56L116.58,232.5Zm51.77,21.42,48-16.22V292l-48,17.26Zm48.24,169.46-47.82-17.26V319.83l47.82,16.43Zm-42.83-92.73,48.44-13.73,44.92,14.56-44.92,15.18Zm99.59,75.47-47.82,17.26V336.26l47.82-16.43ZM180,216.49l48.66-13.72,44.91,14.56L228.66,232.5ZM279.81,292l-48,17.26V237.91l48-16.22Zm.41-81.09-48-17V123.55l48,16.22Zm-43-92.74,48.45-13.51L330.75,119l-45.12,15.38ZM337,193.83l-48,17V139.77l48-16.22Zm55.1,17-48-17V123.55l48,16.22Zm-43-92.74,48.44-13.51L442.61,119l-45.12,15.38Zm51.77,92.74V139.77l48-16.22v70.28Z"/></g></g></svg>