<svg xmlns="http://www.w3.org/2000/svg" xmlns:xlink="http://www.w3.org/1999/xlink" viewBox="0 0 512 512"><defs><style>.cls-1{fill:url(#linear-gradient);}.cls-2{fill:url(#linear-gradient-2);}.cls-3{fill:url(#linear-gradient-3);}.cls-4{fill:url(#linear-gradient-4);}.cls-5{fill:url(#linear-gradient-5);}</style><linearGradient id="linear-gradient" x1="338.94" y1="16.21" x2="338.94" y2="496.47" gradientUnits="userSpaceOnUse"><stop offset="0" stop-color="#4498f9"/><stop offset="0.72" stop-color="#235fa4"/></linearGradient><linearGradient id="linear-gradient-2" x1="145.17" y1="16.21" x2="145.17" y2="496.47" xlink:href="#linear-gradient"/><linearGradient id="linear-gradient-3" x1="173.53" y1="16.21" x2="173.53" y2="496.47" xlink:href="#linear-gradient"/><linearGradient id="linear-gradient-4" x1="366.53" y1="16.21" x2="366.53" y2="496.47" xlink:href="#linear-gradient"/><linearGradient id="linear-gradient-5" x1="256" y1="16.21" x2="256" y2="496.47" xlink:href="#linear-gradient"/></defs><title>Asset 68</title><g id="Layer_2" data-name="Layer 2"><g id="Layer_1-2" data-name="Layer 1"><path class="cls-1" d="M334.73,243.66c-5.77-.11-8,1.93-9.69,7.16-14.37,44.92-29,89.75-43.53,134.61-.58,1.79-.81,3.7-1.65,7.67L398,243.81C375.54,243.81,355.13,244.06,334.73,243.66Z"/><path class="cls-2" d="M84,291.91c-2.57,6.07-.92,9,4.08,12.61,34.61,24.82,69,50,103.43,75Q199,385,206.54,390.44c.35-.41.69-.83,1-1.24L99.15,252.26C93.88,266.17,89.35,279.22,84,291.91Z"/><path class="cls-3" d="M179.52,244c-20.48-.25-41-.14-61.44-.06-.88,0-1.76.64-3.16,1.19L230.63,391.3l1.51-.69q-23.26-71.48-46.72-142.88C184.83,246,181.56,244,179.52,244Z"/><path class="cls-4" d="M412.8,252.19,304.24,389.35c41.57-28.27,82-57.59,122.18-87.17,1.68-1.23,2.88-5.22,2.2-7.2C423.83,281.08,418.49,267.37,412.8,252.19Z"/><path class="cls-5" d="M256,0C114.62,0,0,114.62,0,256S114.62,512,256,512,512,397.39,512,256,397.38,0,256,0ZM442.71,311.47q-89.56,64.8-178.85,130c-5.86,4.28-10.44,3.94-16.13-.22q-88.93-65-178.16-129.56c-6.12-4.42-7.59-8.81-4.89-15.93,24.42-64.5,48.54-129.11,73-193.61,1.45-3.85,4.61-7.06,7-10.56l3.76-.12c2.55,3.59,6.14,6.82,7.48,10.82,10.09,30,19.74,60.08,29.52,90.15,3,9.33,6.29,18.6,9,28,1.34,4.69,3.48,6.49,8.55,6.46,35.23-.22,70.46-.3,105.69.05,6.14.06,7.8-2.79,9.36-7.66q18.76-58.4,38-116.65C357,99.32,359.13,95,362,93.75c7-3.1,10.1,1.89,12.35,7.92q25.14,67.43,50.51,134.78c7.48,19.91,14.82,39.86,22.55,59.67C450,302.83,448.56,307.23,442.71,311.47Z"/></g></g></svg>