<svg xmlns="http://www.w3.org/2000/svg" xmlns:xlink="http://www.w3.org/1999/xlink" viewBox="0 0 512 512"><defs><style>.cls-1{fill:url(#linear-gradient);}.cls-2{fill:url(#linear-gradient-2);}.cls-3{fill:url(#linear-gradient-3);}.cls-4{fill:url(#linear-gradient-4);}.cls-5{fill:url(#linear-gradient-5);}.cls-6{fill:url(#linear-gradient-6);}.cls-7{fill:url(#linear-gradient-7);}.cls-8{fill:url(#linear-gradient-8);}.cls-9{fill:url(#linear-gradient-9);}.cls-10{fill:url(#linear-gradient-10);}.cls-11{fill:url(#linear-gradient-11);}.cls-12{fill:url(#linear-gradient-12);}.cls-13{fill:url(#linear-gradient-13);}</style><linearGradient id="linear-gradient" x1="280.49" y1="16.21" x2="280.49" y2="496.47" gradientUnits="userSpaceOnUse"><stop offset="0" stop-color="#4498f9"/><stop offset="0.72" stop-color="#235fa4"/></linearGradient><linearGradient id="linear-gradient-2" x1="251.98" y1="16.21" x2="251.98" y2="496.47" xlink:href="#linear-gradient"/><linearGradient id="linear-gradient-3" x1="281.28" y1="16.21" x2="281.28" y2="496.47" xlink:href="#linear-gradient"/><linearGradient id="linear-gradient-4" x1="333.75" y1="16.21" x2="333.75" y2="496.47" xlink:href="#linear-gradient"/><linearGradient id="linear-gradient-5" x1="166.19" y1="16.21" x2="166.19" y2="496.47" xlink:href="#linear-gradient"/><linearGradient id="linear-gradient-6" x1="270.34" y1="16.21" x2="270.34" y2="141.21" xlink:href="#linear-gradient"/><linearGradient id="linear-gradient-7" x1="304.74" y1="16.21" x2="304.74" y2="496.47" xlink:href="#linear-gradient"/><linearGradient id="linear-gradient-8" x1="304.73" y1="16.21" x2="304.73" y2="496.47" xlink:href="#linear-gradient"/><linearGradient id="linear-gradient-9" x1="351.79" y1="16.21" x2="351.79" y2="496.47" xlink:href="#linear-gradient"/><linearGradient id="linear-gradient-10" x1="256" y1="16.21" x2="256" y2="496.47" xlink:href="#linear-gradient"/><linearGradient id="linear-gradient-11" x1="363.85" y1="16.21" x2="363.85" y2="166.6" xlink:href="#linear-gradient"/><linearGradient id="linear-gradient-12" x1="317.87" y1="16.21" x2="317.87" y2="496.47" xlink:href="#linear-gradient"/><linearGradient id="linear-gradient-13" x1="364.56" y1="16.21" x2="364.56" y2="496.47" xlink:href="#linear-gradient"/></defs><title>Asset 69</title><g id="Layer_2" data-name="Layer 2"><g id="Layer_1-2" data-name="Layer 1"><path class="cls-1" d="M280.43,180.49l.11.2a0,0,0,0,1,0,0Z"/><path class="cls-2" d="M235.89,179.39c5.66-12.93,15.31-25.25,34.46-20.94,3.65-6-2.91-10.5-7.76-11.22-11.28-1.7-25.09,10.85-28.52,20.27C232.76,171.08,230.7,178.14,235.89,179.39Z"/><path class="cls-3" d="M266.43,209.92c-7.2,11.38,13.93,13.5,23.05,10.81,2.49-.74,6.84-4.48,7.41-6.17,2.55-7.29-2.56-10.4-5.18-13-5.78-5.62-7.15-13.44-11.17-20.91-2.81,8.07,4.91,21.75,9.23,28.66C284.12,214.82,274,210.27,266.43,209.92Z"/><path class="cls-4" d="M308.8,273.18c22.51,2.24,37.82-7.36,51.56-16.19h-.11c-.55-3.45,4.29-9.7,2.85-14.89-.45-1.78-4.52-4.38-7-7.08-10.08-11-23.91-27.28-29.38-40.24-.62-1.43-1-9.2-5.23-6.12C321,207.61,335.06,223.3,345.57,236c5.27,6.16,11.47,9.69,5.76,19.3-9.17,3.5-24.05,13.49-36.82,11.3-6.77-1.16-5.23-8.71-7.68-13C302.18,259.7,304,268.86,308.8,273.18Z"/><path class="cls-5" d="M160.84,231.08c-3.66,7.14-2.78,21,2.19,25.55.12-8.47-1.35-22.94,5.88-22.51,5,.3,6,11.13,10.37,13.58l0,0c4.9-22.86-23.82-34.43-26.78-12.87C154.82,233.34,156.52,229,160.84,231.08Z"/><path class="cls-6" d="M270.35,158.45h0v0Z"/><path class="cls-7" d="M276.93,285.59v.15c-10.56,0-1.64,5.9.14,8.2,3.72,4.77,8.07,12.89,14.84,16.49,10.65,5.68,31.85,3.3,39.54.18a14.16,14.16,0,0,0,6.2-7.2C313.66,304,285.21,306.37,276.93,285.59Z"/><path class="cls-8" d="M330.29,292.65c0-4.35,0-8.76-.86-12.32-16.26.49-38.27-.18-50.22-6.48h0C284.67,288.52,309.38,293.69,330.29,292.65Z"/><path class="cls-9" d="M334.9,279.66c-.69,2.36-.39,8.34,0,12.27,18.76-.39,27.81-13.8,34.2-26v0C357.94,271,349.25,278.28,334.9,279.66Z"/><path class="cls-10" d="M256,0C114.62,0,0,114.62,0,256S114.62,512,256,512,512,397.39,512,256,397.39,0,256,0ZM223.83,106.19h0c1.15-.33,2.16.48,3.12,1.49-.11,3.31-3.39,3.25-5.61,4.32-3.46,4.25-8.5,6.22-12.71,10.87s-9.13,17.57-14.83,19c-2.88.72-6.15-.47-8.64-.33-6.6.4-11.23,3.79-17.92,4.75C175.88,127.42,202.81,112.15,223.83,106.19Zm-66.4,59.25c8.57-9.44,20.36-15.3,34.74-16.39,7.4,18.84-5.33,41.23-.58,61.83,1.45,6.3,6.47,16.1-1.54,16.31.2-17.94-22.05-29.33-38.83-18.78-1-13.61-3.05-32.73,6.22-43Zm-14.59,71.79c.66-12.39,11.12-24.25,25.43-22.67,10.11,1.1,13.55,12.16,15.51,22,5.82.32,14.26-.25,17-4.8-.38-11.1-5.55-20-5.19-30.21.66-19.17,11.12-36.5,3.06-55.36,8.62-19.59,33.93-35,52.65-44.36,23.2-11.56,60.11-2.3,81.92,10h0c12.53,7.06,21.78,20.59,30.59,32.12-12.37-3.69-22.88,2.62-21,12.81,10.23-9.5,28-.11,33.27,10.37,5,10,5,24.87,5.73,39.78,1.87,36.15-6.62,73.42-24.77,99.55-4.85,7-8.93,14.6-15.76,19.39-16.46,11.53-41.46,22-62.87,14.84-28.33-9.48-41.19-28.34-56.75-49.95.44,11.87,8.76,21.61,17,30.68,7.17,7.91,15.82,16.83,25.13,20.52-7.75-1.81-19.66-2.39-22.9,4.58-18.12-1.21-35-3.05-43.52-15.32-6.63-9.68-13.63-26.13-16.71-38.84-.62-2.62-1.7-8.17-1.44-9.61,1-5.5,10.83-7.94,7-15.64-7.11-.06-8.73,6.5-15.26,7.14C154,275.91,142.08,251.78,142.84,237.23ZM321.38,371c2.62-1.87,7-1.87,11-2.3a19.16,19.16,0,0,0-12.23-1.39c-.08-2.69-1.29-4.33-2-6.43,6.71-2.39,22.52-18.06,31.42-12.88,4.24,2.46,6,16.58,6.37,23.43h0c.27,5.69-.54,11.42-2.84,14.44A132.59,132.59,0,0,1,321,381.39C321.61,377.53,320.41,373.73,321.38,371Zm-10.89-12.7c-10.64.52-16.46-.74-24.28-6.86.13-.47.92-.26,1-.86l0,0c11.4,5.09,25.88-2.08,37.41-3.09Zm-7.62,21.1c-1.05-5.92-2.23-7.61-1.77-12.79C316.91,356,319.87,384.68,302.87,379.35Zm-66.2-16.65c-7.38-.46-30.49-8.85-24.43-15.05,6,4.13,17.45,3.11,26.2,4.65C238.9,355.11,236.62,358.81,236.67,362.7Zm-23.94,52.78c.05-3.77-.29-6.51-1.52-7-3.28-1.17-4.38,4-4.75,7h-71.7a249.42,249.42,0,0,0-14.17-39.11c19.54-15.08,41.39-31,64.77-40.24,1.77-.7,14.69,16.1,16.6,17.47l0,.14c10.47,7.59,23.47,13.31,35.64,19.12.72,5.58,2.59,12.81,5.47,22.49,2.6,8.31,4.85,19.28,12.36,20.13Zm41.79-8.87c-2.27-.53-2.49-3.37-3.39-6.05-2-5.76-6.44-14.86-6.83-23.47-.49-10.91-1.6-29.14,10.14-26.89a104.88,104.88,0,0,1,27.79,10.17v.18c4.48,2.45,7.07,5.48,13.87,6l-.1,2.74c-3.74,2.3-9.73,2.26-13.82,4.32A35.94,35.94,0,0,1,297,377.36l-.26,6.81c-6.68,4.65-13,11.61-21.08,16C271.89,402.22,258.56,407.55,254.52,406.61ZM269,415.48c5.34-7.71,14.07-12.94,22.21-18.42a113.36,113.36,0,0,1,11.57,18.42Zm60.92,0h-5.15a3.82,3.82,0,0,0-6.05,0h-7.48c-3.89-8.55-8.18-16.74-13.88-23.61l3.81-4.4c5.67,2.36,9.37-3.12,13.74-2.65l0,0c5,.53,9,7.41,16.11,7C330.53,399.74,330.35,407.67,329.9,415.48Zm5,0c.79-7.94,1.28-15.92,1.57-23h-.15c10.26-4.74,18.91,1.08,23,7.7-3,5.09-5.91,10.22-8.88,15.32Zm54-39.2c-2.35,11.6-6.69,25.72-11.55,39.2H355.14l10.66-17.81c-1.67-3.85-5.74-5.5-6.92-9.79,7.64-14.43,4.12-59.17-15.35-49.72h0c2.72-4,9.89-7.31,13.2-12.24l21.09,19.93c4.27,3.82,12.67,8.43,13.53,14.62C391.81,363.93,389.67,372.39,388.9,376.28Z"/><path class="cls-11" d="M363.78,180.27h.14v0Z"/><path class="cls-12" d="M317.87,403.8A3.86,3.86,0,1,0,314,400,3.85,3.85,0,0,0,317.87,403.8Z"/><path class="cls-13" d="M378.22,206.74c-5.47-7.93-9.22-17.45-13.54-26.44l-.76,0c-.74,10.32,3.1,16.54,5.76,23.86-4.61,2.9-13.59,1.09-18.78,3.37C350.54,222.8,374.56,215.38,378.22,206.74Z"/></g></g></svg>