<svg xmlns="http://www.w3.org/2000/svg" xmlns:xlink="http://www.w3.org/1999/xlink" viewBox="0 0 512 512"><defs><style>.cls-1{fill:url(#linear-gradient);}.cls-2{fill:url(#linear-gradient-2);}</style><linearGradient id="linear-gradient" x1="253.81" y1="16.21" x2="253.81" y2="496.47" gradientUnits="userSpaceOnUse"><stop offset="0" stop-color="#4498f9"/><stop offset="0.72" stop-color="#235fa4"/></linearGradient><linearGradient id="linear-gradient-2" x1="256" y1="16.21" x2="256" y2="496.47" xlink:href="#linear-gradient"/></defs><title>Asset 70</title><g id="Layer_2" data-name="Layer 2"><g id="Layer_1-2" data-name="Layer 1"><path class="cls-1" d="M354.93,254.44q0-38.59,0-77.2A22,22,0,0,0,339.4,156a22.33,22.33,0,0,0-29.58,22.07q.06,53.78,0,107.55v2.9l-.56.18c-.65-.74-1.3-1.47-1.93-2.22q-48.9-58.51-97.76-117a38.44,38.44,0,0,0-19.4-12.67c-7.72-2.19-15.46-2.64-23.12.35-7.5,2.92-14.46,10.07-14.43,20.85.13,51.2.06,102.4.06,153.6a24.92,24.92,0,0,0,.46,5.38c2.24,10.19,12.4,19.94,27.74,16.48A21.61,21.61,0,0,0,197.74,332q0-54.31,0-108.63v-3.52c1,1.2,1.59,1.85,2.15,2.52l56.45,67.55c14.12,16.91,28.06,34,42.44,50.66,10,11.58,23.06,15.48,37.89,12.62,10.16-2,18.45-10.37,18.3-22.86C354.69,305,354.93,279.73,354.93,254.44Z"/><path class="cls-2" d="M256,0C114.62,0,0,114.61,0,256S114.62,512,256,512,512,397.38,512,256,397.38,0,256,0ZM423.63,358.74q-81.39,46.9-162.69,93.94c-3.85,2.23-7.27,2.3-11.14.06q-81.42-47.12-162.93-94.07c-3.58-2.06-5.15-4.8-5.14-9q.12-94.55,0-189.09a9.2,9.2,0,0,1,5.11-8.75q81.61-47,163.17-94.2a9.75,9.75,0,0,1,10.67,0q81.54,47.16,163.16,94.2a10.13,10.13,0,0,1,5.48,9.5q0,47,0,94,0,46.74,0,93.47A10.45,10.45,0,0,1,423.63,358.74Z"/></g></g></svg>