<svg xmlns="http://www.w3.org/2000/svg" xmlns:xlink="http://www.w3.org/1999/xlink" viewBox="0 0 512 512"><defs><style>.cls-1{fill:url(#linear-gradient);}</style><linearGradient id="linear-gradient" x1="256" y1="4.8" x2="256" y2="516.8" gradientUnits="userSpaceOnUse"><stop offset="0" stop-color="#4498f9"/><stop offset="0.72" stop-color="#235fa4"/></linearGradient></defs><title>Asset 65</title><g id="Layer_2" data-name="Layer 2"><g id="Layer_1-2" data-name="Layer 1"><path class="cls-1" d="M256,0C114.61,0,0,114.62,0,256S114.61,512,256,512,512,397.38,512,256,397.39,0,256,0ZM82.81,255.85a175.43,175.43,0,0,1,7-49.23H311a49.23,49.23,0,1,1,0,98.45H89.83A175.31,175.31,0,0,1,82.81,255.85Zm174.71,175h0A175,175,0,0,1,100.1,332.42H333.57a83,83,0,0,1,63.25,29.37A174.7,174.7,0,0,1,257.52,430.86Zm76.05-251.28H100.4A175.07,175.07,0,0,1,247.58,81.14h20.77a174.76,174.76,0,0,1,128.84,68.64A83.07,83.07,0,0,1,333.57,179.58Z"/></g></g></svg>