<svg xmlns="http://www.w3.org/2000/svg" xmlns:xlink="http://www.w3.org/1999/xlink" viewBox="0 0 512 512"><defs><style>.cls-1{fill:url(#linear-gradient);}.cls-2{fill:url(#linear-gradient-2);}</style><linearGradient id="linear-gradient" x1="206.43" y1="4.8" x2="206.43" y2="516.8" gradientUnits="userSpaceOnUse"><stop offset="0" stop-color="#4498f9"/><stop offset="0.72" stop-color="#235fa4"/></linearGradient><linearGradient id="linear-gradient-2" x1="256" y1="4.8" x2="256" y2="516.8" xlink:href="#linear-gradient"/></defs><title>Asset 66</title><g id="Layer_2" data-name="Layer 2"><g id="Layer_1-2" data-name="Layer 1"><polygon class="cls-1" points="256.32 228.8 225.22 166.4 117.34 370.19 295.52 193.8 294.23 191.27 256.32 228.8"/><path class="cls-2" d="M256,0C114.61,0,0,114.62,0,256S114.61,512,256,512,512,397.39,512,256,397.38,0,256,0ZM391.1,373.29q-54.86,32.61-109.53,65.5c-6.19,3.7-12.08,7.92-19.54,9-8.52,1.24-16.57.26-24-4.11q-58.44-34.37-116.81-68.81c-2-1.19-4.54-2.16-3.86-4.68l47.86-298a20.08,20.08,0,0,1,1.27-4.58c1.88-4.52,5.21-5.12,8.5-1.47a19.57,19.57,0,0,1,2.89,4.4l47.36,95.91c5.05-11.07,12.26-27.11,17.24-38.22a29.84,29.84,0,0,1,2.7-5.13c4.17-5.84,10.12-5.92,14.42-.18a35.36,35.36,0,0,1,3.13,5.5c10.93,21.75,21.9,43.67,32.81,65.43L328.66,161c4.31-4.19,8.44-8.55,12.78-12.71,2.83-2.71,5.89-5.33,10.28-3.88s5.49,5.32,6.17,9.17c4,22.75,7.88,45.52,11.79,68.29q10.86,63.35,21.73,126.69c1,5.74,1.57,11.57,3,17.19C395.4,369.57,394.36,371.35,391.1,373.29Z"/></g></g></svg>