<svg xmlns="http://www.w3.org/2000/svg" xmlns:xlink="http://www.w3.org/1999/xlink" viewBox="0 0 512 512.13"><defs><style>.cls-1{fill:url(#linear-gradient);}</style><linearGradient id="linear-gradient" x1="256" y1="4.86" x2="256" y2="516.99" gradientUnits="userSpaceOnUse"><stop offset="0" stop-color="#4498f9"/><stop offset="0.72" stop-color="#235fa4"/></linearGradient></defs><title>Asset 63</title><g id="Layer_2" data-name="Layer 2"><g id="Layer_1-2" data-name="Layer 1"><path class="cls-1" d="M510.48,227C498.79,109.5,396.89.53,257.11,0,114.94-.54.1,114.12,0,255.81-.1,397,114.24,512,255.81,512.12a252.32,252.32,0,0,0,180.68-74.58C494.1,379.24,518.62,308.71,510.48,227Zm-127.73-3.57c-1.44,26-9.25,50-22.12,72.47-13.93,24.36-32.19,44.57-56.17,59.35-20.58,12.68-43,19.71-67,22.26a215.45,215.45,0,0,1-44.63-.2c-2.51-.26-3.89.55-5.14,2.71a127.07,127.07,0,0,0-14.94,41.9c-.24,1.33,0,2.83-1.74,3.44-6.88,2.42-13.75,4.87-21.06,7.47,1.13-7.56,2.67-14.67,4.44-21.73,4.29-17.07,10.17-33.52,19.26-48.7a80.22,80.22,0,0,1,22.32-24.45,278.48,278.48,0,0,0,44.76-40.24c31.12-34.48,53.95-73.89,69.72-117.47.48-1.34,1.49-2.67.7-4.77-1.76,3.9-3.32,7.45-4.95,11-16.9,36.51-40,68.69-67.89,97.59a452.5,452.5,0,0,1-55.93,48.83c-11.62,8.64-20.29,20-28.07,32.09-2.15,3.33-2.23,3.39-4.3-.12-10-17.11-15.85-35.68-19.13-55.16a143.27,143.27,0,0,1-1.19-39.31A134.53,134.53,0,0,1,147.52,217C161.17,193.58,180,175.15,202,159.72c25.33-17.77,53.17-30.55,82.09-41.21a144.85,144.85,0,0,0,40.8-23.46c6.07-4.87,12.65-9.11,18.2-14.62,2.24-2.22,2.69.09,3.44,1.26a219.64,219.64,0,0,1,18.64,36.77A241.57,241.57,0,0,1,382.75,223.38Z"/></g></g></svg>