<svg xmlns="http://www.w3.org/2000/svg" xmlns:xlink="http://www.w3.org/1999/xlink" viewBox="0 0 512 512"><defs><style>.cls-1{fill:url(#linear-gradient);}</style><linearGradient id="linear-gradient" x1="256" y1="4.8" x2="256" y2="516.8" gradientUnits="userSpaceOnUse"><stop offset="0" stop-color="#4498f9"/><stop offset="0.72" stop-color="#235fa4"/></linearGradient></defs><title>Asset 61</title><g id="Layer_2" data-name="Layer 2"><g id="Layer_1-2" data-name="Layer 1"><path class="cls-1" d="M256,0h0C114.61,0,0,114.61,0,256H0C0,397.39,114.61,512,256,512h0c141.39,0,256-114.61,256-256h0C512,114.61,397.39,0,256,0ZM388.84,170.23l-50.19,19.83-5.45,2.13L283,172.36l55.57-22ZM286,191.05l-25.64,37.6-59.24-24.57Zm-52.73-72.32,25.6,10,24.14-7.9-6.53,15.65,24.61,9.22L269.36,149l-7.11,17.1L250.78,147l-36.65-3.29,27.34-9.86Zm-55,36.48c25,0,45.36,7.87,45.36,17.58s-20.31,17.59-45.36,17.59-45.37-7.88-45.37-17.59S153.18,155.21,178.24,155.21ZM440.55,328.14c0,3.69-4.43,7.73-14.46,13h0c-19.7,10.27-121.75,52.23-143.48,63.56s-33.79,11.21-51,3S105.89,355.6,86.33,346.25c-9.78-4.68-14.92-8.62-14.92-12.35V296.59h0c0,3.78,4.94,7.79,14.92,12.56,19.56,9.35,128.16,53.22,145.32,61.42s29.24,8.32,51-3S406.39,314.27,426.08,304c9.76-5.08,14.5-9.07,14.47-12.66h0Zm0-60.37c0,3.68-4.43,7.73-14.46,13C406.39,291,304.34,333,282.61,344.29s-33.79,11.21-51,3S105.89,295.22,86.33,285.87c-9.78-4.67-14.92-8.61-14.92-12.34V236.22h0c0,3.79,4.94,7.8,14.92,12.57,19.56,9.35,128.16,53.22,145.32,61.42s29.24,8.31,51-3,123.78-53.29,143.47-63.56c9.76-5.08,14.5-9.07,14.47-12.65h0Zm0-63.12c0,3.68-4.43,7.73-14.46,13-19.7,10.26-121.75,52.23-143.48,63.56s-33.79,11.21-51,3S105.89,232.1,86.33,222.76c-9.78-4.68-14.92-8.62-14.92-12.34V173.1h0c-.53,3.93,4.45,8.09,14.88,13.07,19.56,9.35,128.16,53.22,145.32,61.43s29.24,8.31,51-3S406.39,191.29,426.08,181c10.23-5.33,14.95-9.45,14.43-13.17h0Z"/></g></g></svg>