<svg xmlns="http://www.w3.org/2000/svg" xmlns:xlink="http://www.w3.org/1999/xlink" viewBox="0 0 512 512"><defs><style>.cls-1{fill:url(#linear-gradient);}.cls-2{fill:url(#linear-gradient-2);}.cls-3{fill:url(#linear-gradient-3);}.cls-4{fill:url(#linear-gradient-4);}</style><linearGradient id="linear-gradient" x1="228.85" y1="4.8" x2="228.85" y2="516.8" gradientUnits="userSpaceOnUse"><stop offset="0" stop-color="#4498f9"/><stop offset="0.72" stop-color="#235fa4"/></linearGradient><linearGradient id="linear-gradient-2" x1="256" y1="4.8" x2="256" y2="516.8" xlink:href="#linear-gradient"/><linearGradient id="linear-gradient-3" x1="255.99" y1="4.8" x2="255.99" y2="516.8" xlink:href="#linear-gradient"/><linearGradient id="linear-gradient-4" x1="340.78" y1="4.8" x2="340.78" y2="516.8" xlink:href="#linear-gradient"/></defs><title>Asset 62</title><g id="Layer_2" data-name="Layer 2"><g id="Layer_1-2" data-name="Layer 1"><path class="cls-1" d="M238.05,205.42c.17-1.54-.86-3-2.75-4.07a19.22,19.22,0,0,0-11.94-1.66c-2.55.64-3.64,1.88-3.72,3.37s.85,3.23,2.35,4.83a11,11,0,0,0,6.19,3.39h.06a9.71,9.71,0,0,0,6.6-1.67A7.31,7.31,0,0,0,238.05,205.42Z"/><path class="cls-2" d="M256,0C114.62,0,0,114.62,0,256S114.62,512,256,512,512,397.38,512,256,397.38,0,256,0ZM428.07,309.39a21.54,21.54,0,0,1-4.31,11.07c-4.18,5.68-13.3,12.85-24.15,17.9a80.62,80.62,0,0,1-19.16,5.51,102.71,102.71,0,0,1-20.89,1.43h-.63l-2.46-.23c-.06.57-.12,1.15-.23,1.78-.12,1.26-.23,2.06-.29,2.63-.92,37.06-6.89,58.35-16.24,71.6-10.73,15.38-24.09,19.45-39.12,22.66-38.67,8.27-46.82-16.64-51.35-30.63-.29-.81-.52-1.49-.8-2.24-2-5.33-3.22-12.05-4.08-19.62-.8-7.23-1.2-14.69-1.49-22.2-.11-2.18-.17-5.28-.29-8.38a54.62,54.62,0,0,1,.23-6.14,54.65,54.65,0,0,1-13.42,4,70.62,70.62,0,0,1-28.81-1.49c-5.33-1.32-12.1-4.42-16.29-8.38a25.08,25.08,0,0,1-1.95-2.06,36.29,36.29,0,0,1-11,6.31c-13.89,5-26.11-.23-36.72-12.05-7.69-8.49-14.57-21-20.66-35.4C96.46,263.83,84.87,203.77,84.13,189c-6.2-123.81,105.16-94.2,135.51-83.87a73.05,73.05,0,0,1,17-7.4,90.52,90.52,0,0,1,27.59-3.62c5.17.06,10.27.4,15.44.92q5.36.58,10.67,1.55c12.39-3.56,41.42-9.93,70.56-3a100.17,100.17,0,0,1,56.92,36.38c10.9,13.94,10.78,45.66.69,82.15A344.41,344.41,0,0,1,382.23,296c3.73-.92,9.64-2.18,19-4.13,7.28-1.49,13-1,17.1,1C425.49,296.3,428.58,302,428.07,309.39Z"/><path class="cls-3" d="M414.06,301.24c-2.29-1.09-5.85-1.32-10.9-.29-26,5.39-33.73,2-36-.17h0a333.53,333.53,0,0,0,41.77-91.92c9.29-33.62,10-62,1.09-73.43a89.89,89.89,0,0,0-46.7-31.56c-25-7.22-49.68-3.67-63.17-.51-1,.23-1.83.4-2.52.57-.29.12-5.39,1.55-9,2.53a108.7,108.7,0,0,0-24.5-3c-18.12-.29-32.12,4.3-43,11.7C202.88,108.35,88.19,70.43,94,187.92c.75,14.29,12,72.64,29.09,113.14,5.68,13.42,12,25,18.88,32.65,7.91,8.72,16.58,12.67,26,9.29,4.48-1.61,8.95-4.82,13.25-10,12.11-14.57,23.18-26.56,27.31-30.92a43.61,43.61,0,0,0,19.68,5.27,2.69,2.69,0,0,0,.06.69q-1.82,2-3.5,4.13c-4.36,5.57-5.74,7.29-21,10.45-6.88,1.43-11,3.32-13.25,5.45a7.92,7.92,0,0,0-2.75,7.17,9.79,9.79,0,0,0,3.21,5.67c2.93,2.76,7.92,5,11.94,6a60.78,60.78,0,0,0,24.72,1.32,44.87,44.87,0,0,0,22.78-11.07c-.12,14,.11,27.48.63,38.9.74,15.66,2.12,27.88,4.24,33.1s5.45,13.14,12.45,19.05,17.67,9.75,33.74,6.31c12.85-2.76,21.74-6.94,28.11-13.54s9.81-15.32,11.88-27.19c1.2-7,3-19.85,4.59-32.82,1.31-10.33,2.52-20.54,3.32-27.82,1,.28,2.07.57,3.16.8a66.62,66.62,0,0,0,15.55.8c9.69-.57,20.31-2.75,27.25-6,9.35-4.36,17-10.21,20.31-14.8a11.61,11.61,0,0,0,2.41-5.85A6.57,6.57,0,0,0,414.06,301.24ZM360.54,113.35a80.49,80.49,0,0,1,41.65,28.17c7,9,5.68,34-2.81,64.71a322.11,322.11,0,0,1-37.81,84.85c-.4-.46-.8-1-1.2-1.49a5.82,5.82,0,0,1-.52-.63c10.21-16.75,8.26-32.93,6.43-48.13A112.36,112.36,0,0,1,365,223.67a138.94,138.94,0,0,1,1.67-15.32,93.52,93.52,0,0,0,1.6-18.93c0-.17.06-.34.06-.52.29-1.66-.34-5.45-2.06-10.27a103.21,103.21,0,0,0-7.23-15.83c-9.3-17-26.28-38.61-53.3-50.54C318.71,109.61,339.6,107.32,360.54,113.35ZM356.4,242c1.49,12.28,3,25.24-2.92,37.87a59.22,59.22,0,0,1-2.64-5.4c-.75-1.77-2.35-4.76-4.53-8.6-8-14.4-23.75-42.63-21-59.95,1.55-9.7,10.33-15.9,33.05-13.09a93.2,93.2,0,0,1-1.5,14.12,141.9,141.9,0,0,0-1.78,16.46A131.15,131.15,0,0,0,356.4,242ZM173.68,326.59c-3.16,3.79-6.14,6.08-8.9,7.06-5,1.84-10.26-.92-15.37-6.6-6.14-6.82-11.94-17.44-17.15-29.83-16.64-39.42-27.6-95.93-28.29-109.75-4.7-94.78,81.53-73.72,108.2-64.95-29.54,29-28.22,81-28.16,81.36-.06,1.26.05,2.86.17,5,.51,8.09,1.43,23.63-1,40.9a52.24,52.24,0,0,0-.28,12.68A51.25,51.25,0,0,0,196,292.17a52.26,52.26,0,0,0,4.36,4.19Q186.55,311.06,173.68,326.59ZM224.8,297.1a35.82,35.82,0,0,1-21.46-11.64,41,41,0,0,1-10.56-23.93,42.69,42.69,0,0,1,.23-10.38c2.59-18.42,1.61-34.54,1.09-42.86,0-1.49-.17-3-.17-4.47.06-.23,5.56-2.75,12.8-5.74a62.49,62.49,0,0,1,13.42-3.84,27.69,27.69,0,0,1,12.22.51c4.76,1.49,8.67,5.28,10.21,12.62,8.21,37.93,1,53.88-4.58,66.38A134,134,0,0,0,232.33,288a93.2,93.2,0,0,0-3,9.48A40.63,40.63,0,0,1,224.8,297.1Zm25,26c-7.06,9.81-15.72,13.94-23.81,15.31s-15.95,0-20.6-1.14a22.12,22.12,0,0,1-6.65-2.87,30,30,0,0,1,7.06-2.13h0c18.87-3.9,20.76-6.25,26.85-14a89.24,89.24,0,0,1,7-7.92,3.37,3.37,0,0,1,2.23-1,7.91,7.91,0,0,1,4.54,1.49,11.46,11.46,0,0,1,3.78,5.28C251,318.34,251.25,321.09,249.81,323.1Zm90.65.16c-.46,5.57-2.18,21.23-4.13,36.49-1.61,12.51-3.33,25.13-4.54,32.36-1.72,9.87-4.41,17-9.29,22s-12.16,8.38-23,10.73c-12.39,2.64-20.19.06-25.24-4.24-5.22-4.42-8-10.79-9.7-15.09-1.6-4.13-2.81-15.15-3.5-29.89s-.8-33-.4-51.41c.06-3.95.23-7.57-1.09-11.36a21.81,21.81,0,0,0-7.4-10.1A17.7,17.7,0,0,0,241,299.4a13.21,13.21,0,0,0-2.06.34c.64-2.52,1.55-5.27,2.59-8.18,2.84-8,1-3.75,5.49-13.73,6.2-13.83,14.12-31.5,5.29-72.52-2.53-11.47-9-17.5-17-20a37.31,37.31,0,0,0-16.58-.86A73,73,0,0,0,203,188.9a61.84,61.84,0,0,0-8.72,4.48c1.89-24,12.33-81,69.64-80,47.51.75,74.18,31.9,86.47,54.22a93.52,93.52,0,0,1,6.54,14.34,6.14,6.14,0,0,1,.28.86c-28-2.92-39.3,6.83-41.65,21.57-3.33,20.71,13.54,50.95,22.09,66.27,2,3.61,3.55,6.36,4.07,7.63a65.91,65.91,0,0,0,10.9,17.55c1,1.32,1.95,2.47,2.64,3.45C348.78,301.06,339.48,304.45,340.46,323.26Zm50.83-3.49c-5.85,2.69-15,4.53-23.64,5a54.42,54.42,0,0,1-13.08-.63c-2.24-.4-3.73-.86-4.19-1.32-.57-11.82,4.88-13.31,8.32-14.28.86-.29,1.72-.52,2.47-.75,11.72,8.86,31.36,5.16,44.29,2.76A54.9,54.9,0,0,1,391.29,319.77Z"/><path class="cls-4" d="M346,197.22a15.88,15.88,0,0,0-5.8-.17,17.63,17.63,0,0,0-5.51,1.72c-1.65.94-2.32,2-2.3,3.07,0,1.54,1.52,3.08,3.56,4.22a8.75,8.75,0,0,0,5.13,1.08A9.73,9.73,0,0,0,347,204c1.43-1.49,2.29-3.27,2.12-4.3C349,198.48,347.8,197.62,346,197.22Z"/></g></g></svg>