<svg id="Layer_1" data-name="Layer 1" xmlns="http://www.w3.org/2000/svg" viewBox="0 0 512 512"><defs><style>.cls-1{fill:#fff;}</style></defs><title>to-do-list</title><path class="cls-1" d="M427,0H85A58.07,58.07,0,0,0,27,58V428a30,30,0,0,0,30,30H264.73a110.9,110.9,0,0,0,4.37,12.54l14.71,35.3a10,10,0,1,0,18.46-7.69l-14.71-35.31a90.68,90.68,0,0,1-7-35.09V350.21a11.21,11.21,0,0,1,21.85-3.55l15.07,45.22A36.73,36.73,0,0,0,389,380.27V208.82l13.37,13.33a125.13,125.13,0,0,1,37,89.14v106.3a188.27,188.27,0,0,1-18,80.12,10,10,0,0,0,18.07,8.57,208.44,208.44,0,0,0,20-88.69V311.29A145,145,0,0,0,416.53,208L389,180.55V171h66a30,30,0,0,0,30-30V58A58.06,58.06,0,0,0,427,0ZM369,58V380.27a16.73,16.73,0,0,1-32.6,5.29l-15.07-45.22a31.21,31.21,0,0,0-60.82,9.87V358H208.71a10,10,0,0,0,0,20h51.83v49.75q0,5.14.47,10.25H57a10,10,0,0,1-10-10V58A38,38,0,0,1,85,20H383.27A57.78,57.78,0,0,0,369,58Zm96,83a10,10,0,0,1-10,10H389V58a38,38,0,0,1,76,0Z"/><path class="cls-1" d="M80.71,118a20,20,0,0,0,20,20h44a20,20,0,0,0,20-20V74a20,20,0,0,0-20-20h-44a20,20,0,0,0-20,20Zm20-44h44v44h-44Z"/><path class="cls-1" d="M144.71,174h-44a20,20,0,0,0-20,20v44a20,20,0,0,0,20,20h44a20,20,0,0,0,20-20V194A20,20,0,0,0,144.71,174Zm0,64h-44V194h44v44Z"/><path class="cls-1" d="M144.71,294h-44a20,20,0,0,0-20,20v44a20,20,0,0,0,20,20h44a20,20,0,0,0,20-20V314A20,20,0,0,0,144.71,294Zm0,64h-44V314h44v44Z"/><path class="cls-1" d="M208.43,138H323.37a10,10,0,0,0,0-20H208.43a10,10,0,0,0,0,20Z"/><path class="cls-1" d="M323.37,238H208.7a10,10,0,0,0,0,20H323.37a10,10,0,0,0,0-20Z"/></svg>