<svg id="Layer_1" data-name="Layer 1" xmlns="http://www.w3.org/2000/svg" xmlns:xlink="http://www.w3.org/1999/xlink" viewBox="0 0 512 512"><defs><style>.cls-1{fill:url(#linear-gradient);}.cls-2{fill:url(#linear-gradient-2);}.cls-3{fill:url(#linear-gradient-3);}.cls-4{fill:url(#linear-gradient-4);}.cls-5{fill:url(#linear-gradient-5);}.cls-6{fill:url(#linear-gradient-6);}</style><linearGradient id="linear-gradient" x1="255.51" y1="1" x2="255.51" y2="511.42" gradientUnits="userSpaceOnUse"><stop offset="0" stop-color="#0098fb"/><stop offset="0.72" stop-color="#005fa7"/></linearGradient><linearGradient id="linear-gradient-2" x1="312.26" x2="312.26" y2="511.42" xlink:href="#linear-gradient"/><linearGradient id="linear-gradient-3" x1="198.75" x2="198.75" y2="511.42" xlink:href="#linear-gradient"/><linearGradient id="linear-gradient-4" x1="255.5" x2="255.5" y2="511.42" xlink:href="#linear-gradient"/><linearGradient id="linear-gradient-5" x1="430.65" x2="430.65" y2="511.42" xlink:href="#linear-gradient"/><linearGradient id="linear-gradient-6" x1="80.35" x2="80.35" y2="511.42" xlink:href="#linear-gradient"/></defs><title>android</title><path class="cls-1" d="M317.13,50.5l22.43-37.39a9,9,0,0,0-15.41-9.24L300.48,43.32a132.13,132.13,0,0,0-90,0L186.87,3.87a9,9,0,0,0-15.41,9.24L193.89,50.5a134.76,134.76,0,0,0-73.11,119.68,9,9,0,0,0,9,9h251.5a9,9,0,0,0,9-9A134.82,134.82,0,0,0,317.13,50.5Zm-178,110.69a116.78,116.78,0,0,1,232.86,0Z"/><path class="cls-2" d="M312.27,101.58h0a11.84,11.84,0,0,0-11.84,11.84h0a11.84,11.84,0,0,0,11.84,11.83h0a11.84,11.84,0,0,0,11.84-11.83h0A11.84,11.84,0,0,0,312.27,101.58Z"/><path class="cls-3" d="M198.75,101.58h0a11.84,11.84,0,0,0-11.84,11.84h0a11.84,11.84,0,0,0,11.84,11.83h0a11.84,11.84,0,0,0,11.84-11.83h0A11.84,11.84,0,0,0,198.75,101.58Z"/><path class="cls-4" d="M381.25,188.14H129.75a9,9,0,0,0-9,9V378.3a43.45,43.45,0,0,0,43.42,43.38h10.47v53.95a35.93,35.93,0,0,0,71.86,0V421.68h18v53.95a35.93,35.93,0,0,0,71.86,0V421.68h10.47a43.44,43.44,0,0,0,43.42-43.38V197.12A9,9,0,0,0,381.25,188.14Zm-9,190.16a25.46,25.46,0,0,1-25.46,25.41H327.36a9,9,0,0,0-9,9v62.93a18,18,0,0,1-35.93,0V412.7a9,9,0,0,0-9-9H237.54a9,9,0,0,0-9,9v62.93a18,18,0,0,1-35.93,0V412.7a9,9,0,0,0-9-9H164.2a25.47,25.47,0,0,1-25.47-25.41V206.1H372.27Z"/><path class="cls-5" d="M430.65,188.14a31.49,31.49,0,0,0-31.43,31.47V345.29a31.44,31.44,0,1,0,62.87,0V219.61A31.49,31.49,0,0,0,430.65,188.14Zm13.48,157.15a13.48,13.48,0,1,1-26.95,0V219.61a13.48,13.48,0,1,1,26.95,0Z"/><path class="cls-6" d="M80.35,188.14a31.49,31.49,0,0,0-31.44,31.47V345.29a31.44,31.44,0,1,0,62.87,0V219.61A31.49,31.49,0,0,0,80.35,188.14ZM93.82,345.29a13.48,13.48,0,1,1-26.95,0V219.61a13.48,13.48,0,1,1,26.95,0Z"/></svg>