<svg id="Layer_1" data-name="Layer 1" xmlns="http://www.w3.org/2000/svg" xmlns:xlink="http://www.w3.org/1999/xlink" viewBox="0 0 512 512"><defs><style>.cls-1{fill:url(#linear-gradient);}</style><linearGradient id="linear-gradient" x1="256.12" y1="17" x2="256.13" y2="498.07" gradientUnits="userSpaceOnUse"><stop offset="0" stop-color="#0098fb"/><stop offset="0.72" stop-color="#005fa7"/></linearGradient></defs><title>tv-01</title><path class="cls-1" d="M469.46,72.45H296.68l44.67-44.67a8.52,8.52,0,0,0,0-12l-.8-.8a8.52,8.52,0,0,0-12,0L271.16,72.33l-.11.12H241.2l-.11-.12L183.72,15a8.52,8.52,0,0,0-12,0l-.8.8a8.52,8.52,0,0,0,0,12l44.67,44.67H42.79A42.71,42.71,0,0,0,.13,115.12v256a42.71,42.71,0,0,0,42.66,42.67H196.06a111.34,111.34,0,0,1-24,61.52l-5.38,6.74h-30a8.54,8.54,0,0,0,0,17.07H375.59a8.54,8.54,0,1,0,0-17.07h-30l-5.38-6.74a111.37,111.37,0,0,1-23.95-61.52H469.46a42.73,42.73,0,0,0,42.67-42.67v-256A42.73,42.73,0,0,0,469.46,72.45ZM42.79,89.52H469.46a25.58,25.58,0,0,1,24,17.07H18.76A25.58,25.58,0,0,1,42.79,89.52Zm281,392.53H188.42a128.92,128.92,0,0,0,24.75-68.26H299A128.58,128.58,0,0,0,323.83,482.05ZM495.06,371.12a25.6,25.6,0,0,1-25.6,25.6H42.79a25.6,25.6,0,0,1-25.6-25.6v-8.53H495.06Zm0-25.6H17.19V123.65H495.06Z"/></svg>