<svg id="Layer_1" data-name="Layer 1" xmlns="http://www.w3.org/2000/svg" xmlns:xlink="http://www.w3.org/1999/xlink" viewBox="0 0 512 512"><defs><style>.cls-1{fill:url(#linear-gradient);}.cls-2{fill:url(#linear-gradient-3);}.cls-3{fill:url(#linear-gradient-4);}.cls-4{fill:url(#linear-gradient-5);}</style><linearGradient id="linear-gradient" x1="256" y1="50.72" x2="256" y2="473.76" gradientUnits="userSpaceOnUse"><stop offset="0" stop-color="#0098fb"/><stop offset="0.72" stop-color="#005fa7"/></linearGradient><linearGradient id="linear-gradient-3" x1="69.02" y1="50.72" x2="69.02" y2="473.76" xlink:href="#linear-gradient"/><linearGradient id="linear-gradient-4" x1="41.13" y1="50.72" x2="41.13" y2="473.76" xlink:href="#linear-gradient"/><linearGradient id="linear-gradient-5" x1="97.02" y1="50.72" x2="97.02" y2="473.76" xlink:href="#linear-gradient"/></defs><title>web</title><path class="cls-1" d="M469.33,43.13H42.67A42.72,42.72,0,0,0,0,85.8v256a42.72,42.72,0,0,0,42.67,42.67H195.93A111.26,111.26,0,0,1,172,446l-5.39,6.74h-30a8.54,8.54,0,0,0,0,17.07H375.47a8.54,8.54,0,0,0,0-17.07h-30L340,446a111.46,111.46,0,0,1-24-61.52H469.33A42.72,42.72,0,0,0,512,341.8V85.8A42.72,42.72,0,0,0,469.33,43.13ZM42.67,60.2H469.33a25.61,25.61,0,0,1,24,17.07H18.64A25.61,25.61,0,0,1,42.67,60.2ZM494.93,94.33V136H17.07V94.33ZM323.7,452.73H188.3A128.83,128.83,0,0,0,213,384.47h85.85A128.54,128.54,0,0,0,323.7,452.73ZM494.93,341.8a25.6,25.6,0,0,1-25.6,25.6H42.67a25.6,25.6,0,0,1-25.6-25.6v-8.53H494.93ZM17.07,316.2V153H494.93V316.2Z"/><path class="cls-1" d="M238.93,358.87h34.14a8.54,8.54,0,0,0,0-17.07H238.93a8.54,8.54,0,0,0,0,17.07Z"/><path class="cls-2" d="M69,124h0a8.23,8.23,0,0,0,0-16.45h0A8.23,8.23,0,1,0,69,124Z"/><path class="cls-3" d="M41.13,124h0a8.23,8.23,0,0,0,0-16.45h0a8.23,8.23,0,1,0,0,16.45Z"/><path class="cls-4" d="M97,124h0a8.23,8.23,0,0,0,0-16.45h0A8.23,8.23,0,1,0,97,124Z"/></svg>