<svg id="Layer_1" data-name="Layer 1" xmlns="http://www.w3.org/2000/svg" xmlns:xlink="http://www.w3.org/1999/xlink" viewBox="0 0 512 512"><defs><style>.cls-1{fill:url(#linear-gradient);}.cls-2{fill:url(#linear-gradient-2);}</style><linearGradient id="linear-gradient" x1="305.97" y1="7" x2="305.97" y2="511.19" gradientUnits="userSpaceOnUse"><stop offset="0" stop-color="#0098fb"/><stop offset="0.72" stop-color="#005fa7"/></linearGradient><linearGradient id="linear-gradient-2" x1="256" y1="7" x2="256" y2="511.19" xlink:href="#linear-gradient"/></defs><title>ios</title><path class="cls-1" d="M363.88,14.51A14.9,14.9,0,0,0,346.7.17c-58.29,8.91-100.44,65.25-98.59,114.72a14.84,14.84,0,0,0,14.77,14.26h.42C317.85,127.6,365.07,70.92,363.88,14.51ZM263.09,114.14c-.87-25.27,12.41-50,25.19-64.77,14.73-17.24,39.08-31,60.6-34.36C349.78,62.72,309.7,112.65,263.09,114.14Z"/><path class="cls-2" d="M457.08,362.58c-14-7.05-50.77-27.8-55.26-72.86A266.72,266.72,0,0,1,401,257c2.56-39.07,32.16-62.08,43.56-70.28a14.88,14.88,0,0,0,3.09-21.25c-22.62-28.84-54.83-43.14-91.84-45.9-42.6-3.16-78.92,22.86-95.69,22.86-13.73,0-37-16.66-62.94-19.72-9.37-1.1-28.33-1-37.74-.21-38.25,3.07-71,29.84-90.95,64.47-45.27,78.56-12.65,194.41,31.87,258.79,18.31,26.47,45.82,66.25,83,66.24,33.55,0,46.16-20.41,83.24-20.42,36.17,0,46.8,20.44,82.3,19.78,38.65-.73,62.81-36.05,82.21-64.43a284.9,284.9,0,0,0,33.29-66.21A14.93,14.93,0,0,0,457.08,362.58Zm-38.29,75.88c-18.38,26.86-39.2,57.31-70.12,57.9s-42.27-19.78-82-19.78-52.4,19.23-81.83,20.39c-27.7,1.06-49.92-27.66-72.13-59.75C71.68,377.88,39.15,268,81.5,194.46c17.7-30.74,46.72-53.87,80.43-57.17a217.25,217.25,0,0,1,32.27.12c25.4,2.61,47.74,20,65.93,20,21.87,0,55.37-25.81,94.58-22.9,32.64,2.43,61,14.63,81,40.06-13,9.38-47.23,35.59-49.61,80.45-.49,9.31-.14,28,.91,37.28,5.8,51.64,47.1,75.49,63.18,83.61A269.37,269.37,0,0,1,418.79,438.46Z"/></svg>