<svg id="Layer_1" data-name="Layer 1" xmlns="http://www.w3.org/2000/svg" xmlns:xlink="http://www.w3.org/1999/xlink" viewBox="0 0 512 512"><defs><style>.cls-1{fill:url(#linear-gradient);}</style><linearGradient id="linear-gradient" x1="275.04" y1="1.1" x2="275.04" y2="509.3" gradientUnits="userSpaceOnUse"><stop offset="0" stop-color="#0098fb"/><stop offset="0.72" stop-color="#005fa7"/></linearGradient></defs><title>wearables</title><path class="cls-1" d="M414.41,170.71h-9.34V146.39a57,57,0,0,0-41.59-54.85L352.41,30.67C349.28,13.49,333.17,0,315.72,0H201.85c-17.44,0-33.56,13.45-36.69,30.63L154.1,91.54a57,57,0,0,0-41.6,54.85v219.3a57,57,0,0,0,41.6,54.84l11.06,60.88C168.29,498.59,184.4,512,201.85,512H315.72c17.45,0,33.56-13.45,36.69-30.63l11.06-60.87a57,57,0,0,0,41.6-54.85V260.1h9.34a23.2,23.2,0,0,0,23.17-23.17V193.88A23.2,23.2,0,0,0,414.41,170.71ZM181.15,33.58c1.71-9.37,11.19-17.29,20.7-17.29H315.72c9.52,0,19,7.93,20.7,17.29l10.15,55.86H171ZM336.42,478.5c-1.71,9.37-11.18,17.28-20.7,17.28H201.85c-9.51,0-19-7.91-20.7-17.28L171,422.64H346.57Zm52.4-112.81a40.71,40.71,0,0,1-40.64,40.7H169.39a40.72,40.72,0,0,1-40.64-40.7V146.39a40.71,40.71,0,0,1,40.64-40.7H348.18a40.71,40.71,0,0,1,40.64,40.7v219.3Zm32.51-128.76a6.93,6.93,0,0,1-6.92,6.92h-9.34V187h9.34a6.93,6.93,0,0,1,6.92,6.92Z"/></svg>