<svg xmlns="http://www.w3.org/2000/svg" xmlns:xlink="http://www.w3.org/1999/xlink" viewBox="0 0 512 512"><defs><style>.cls-1{fill:url(#linear-gradient);}.cls-2{fill:url(#linear-gradient-2);}</style><linearGradient id="linear-gradient" x1="315.27" y1="1.5" x2="315.27" y2="489.5" gradientUnits="userSpaceOnUse"><stop offset="0" stop-color="#4498f9"/><stop offset="0.72" stop-color="#235fa4"/></linearGradient><linearGradient id="linear-gradient-2" x1="256" y1="1.5" x2="256" y2="489.5" xlink:href="#linear-gradient"/></defs><title>Asset 88</title><g id="Layer_2" data-name="Layer 2"><g id="Layer_1-2" data-name="Layer 1"><path class="cls-1" d="M329.36,225.42l-13.5-7.82a1.28,1.28,0,0,0-.63-.16h0a1,1,0,0,0-.55.16l-13.51,7.82a1.23,1.23,0,0,0-.63,1v15.64a1.21,1.21,0,0,0,.63,1l13.51,7.82a1.18,1.18,0,0,0,1.18,0l13.5-7.82a1.22,1.22,0,0,0,.64-1V226.44A1.22,1.22,0,0,0,329.36,225.42Z"/><path class="cls-2" d="M256,0C114.62,0,0,114.62,0,256S114.62,512,256,512,512,397.38,512,256,397.39,0,256,0ZM123.25,271.38a2.36,2.36,0,0,1-1.19,2.05,2.27,2.27,0,0,1-2.36,0L96.32,260a4.84,4.84,0,0,1-2.45-4.11V227.39a4.69,4.69,0,0,0-2.37-4.1l-10-5.77a4.63,4.63,0,0,0-2.37-.63,4.68,4.68,0,0,0-2.37.63l-10,5.77a4.71,4.71,0,0,0-2.37,4.1V255.9A4.82,4.82,0,0,1,62.05,260L38.67,273.43a2.29,2.29,0,0,1-2.37,0,2.33,2.33,0,0,1-1.18-2.05l-.08-61a4.71,4.71,0,0,1,2.37-4.11l39.4-22.74a4.38,4.38,0,0,1,2.14-.56h.47a4.29,4.29,0,0,1,2.13.56L121,206.23a4.69,4.69,0,0,1,2.37,4.11Zm32.3-11.06a4.72,4.72,0,0,1-2.37-4.1V210.73a4.87,4.87,0,0,1,2.37-4.19L195,183.88a4.75,4.75,0,0,1,4.73,0l39.41,22.66a4.87,4.87,0,0,1,2.37,4.19v45.49a4.72,4.72,0,0,1-2.37,4.1l-39.41,22.75a4.71,4.71,0,0,1-4.73,0ZM314.93,371.1a10.32,10.32,0,0,1-5.07,8.91l-48.79,28.07a10.26,10.26,0,0,1-10.14,0l-16.37-9.64c-2.43-1.36-1.21-1.79-.41-2.07a32.11,32.11,0,0,0,7.35-3.31,1.3,1.3,0,0,1,1.24,0l12.54,7.46a1.55,1.55,0,0,0,1.45,0l48.78-28.07a1.57,1.57,0,0,0,.72-1.35V314.86a1.62,1.62,0,0,0-.83-1.34l-48.67-28.07a1.45,1.45,0,0,0-1.45,0L206.6,313.52a1.62,1.62,0,0,0-.83,1.34V371.1a1.45,1.45,0,0,0,.83,1.24l13.25,7.77c7.25,3.62,11.71-.69,11.71-5V319.63a1.38,1.38,0,0,1,1.45-1.35h6.11a1.39,1.39,0,0,1,1.45,1.35v55.51c0,9.67-5.23,15.23-14.4,15.23-2.82,0-5.1,0-11.29-3L202.14,380a10.3,10.3,0,0,1-5.07-8.91V314.86a10.3,10.3,0,0,1,5.07-8.91l48.79-28.17a10.21,10.21,0,0,1,5.07-1.24h0a10.16,10.16,0,0,1,5.07,1.24L309.86,306a10.31,10.31,0,0,1,5.07,8.91Zm-46.5-23.72c-13.33-1.31-21.54-4.24-21.54-14.91,0-9.83,8.27-15.74,22.16-15.74h0c15.61,0,23.36,5.46,24.34,17.09a1.36,1.36,0,0,1-.41,1,1.54,1.54,0,0,1-1,.52h-6.32a1.43,1.43,0,0,1-1.35-1.14c-1.51-6.75-5.21-8.91-15.22-8.91-11.21,0-12.43,3.91-12.43,6.84,0,3.54,1.44,4.52,16.57,6.52s22.17,4.81,22.17,15.33-8.91,16.68-24.34,16.68c-21.33,0-25.79-9.71-25.79-17.92a1.48,1.48,0,0,1,1.45-1.45H253a1.4,1.4,0,0,1,1.34,1.24c.95,6.42,3.79,9.63,16.68,9.63,10.26,0,14.6-2.32,14.6-7.76C285.62,351.29,284.38,349,268.43,347.38Zm91.1-90.29a4.72,4.72,0,0,1-2.37,4.1l-39.4,22.75a4.72,4.72,0,0,1-4.74,0l-39.41-22.75a4.72,4.72,0,0,1-2.37-4.1V211.6a4.87,4.87,0,0,1,2.37-4.19L313,184.67a4.72,4.72,0,0,1,4.74,0l9.87,5.69a1.69,1.69,0,0,0,1.66,0,1.61,1.61,0,0,0,.79-1.43V128.52a2.37,2.37,0,0,1,2.36-2.37h0a2.34,2.34,0,0,1,1.19.24l23.45,13.11a4.8,4.8,0,0,1,2.45,4.18Zm115.06-31L451,239.79a2.37,2.37,0,0,1-3.55-2V226.52a2.36,2.36,0,0,0-1.19-2.05l-12.32-7.11a2.39,2.39,0,0,0-2.37,0l-12.32,7.11a2.45,2.45,0,0,0-1.26,2.05v14.22a2.55,2.55,0,0,0,1.26,2.13l39.65,22.74a2.34,2.34,0,0,1,1.18,2.06,2.38,2.38,0,0,1-1.26,2.05l-23.69,13.19a4.72,4.72,0,0,1-4.66-.08l-39.09-22.27a4.73,4.73,0,0,1-2.45-4.11V211a4.74,4.74,0,0,1,2.37-4.11l39.4-22.74a4.58,4.58,0,0,1,2.37-.63h0a4.74,4.74,0,0,1,2.37.64l39.17,22.74A4.74,4.74,0,0,1,477,211v11A4.74,4.74,0,0,1,474.59,226.05Zm-33.17,3.08v8.69a.93.93,0,0,1-.47.79L433.37,243a.85.85,0,0,1-.87,0l-7.58-4.34a1,1,0,0,1-.47-.79v-8.69a.92.92,0,0,1,.47-.79l7.58-4.42a1,1,0,0,1,.47-.08.69.69,0,0,1,.4.08l7.58,4.42A.92.92,0,0,1,441.42,229.13Z"/></g></g></svg>