<svg xmlns="http://www.w3.org/2000/svg" xmlns:xlink="http://www.w3.org/1999/xlink" viewBox="0 0 512 512"><defs><style>.cls-1{fill:url(#linear-gradient);}.cls-2{fill:url(#linear-gradient-2);}.cls-3{fill:url(#linear-gradient-3);}</style><linearGradient id="linear-gradient" x1="125.57" y1="1.5" x2="125.57" y2="489.5" gradientUnits="userSpaceOnUse"><stop offset="0" stop-color="#4498f9"/><stop offset="0.72" stop-color="#235fa4"/></linearGradient><linearGradient id="linear-gradient-2" x1="402.72" y1="1.5" x2="402.72" y2="489.5" xlink:href="#linear-gradient"/><linearGradient id="linear-gradient-3" x1="256" y1="1.5" x2="256" y2="489.5" xlink:href="#linear-gradient"/></defs><title>Asset 87</title><g id="Layer_2" data-name="Layer 2"><g id="Layer_1-2" data-name="Layer 1"><path class="cls-1" d="M145.3,209.58q-4.17-1.52-18.46-1.51h-21l-8.67,41.21h9.06q23.28,0,31.07-2.91A25.38,25.38,0,0,0,149.53,237,24.24,24.24,0,0,0,154,222.89a14.61,14.61,0,0,0-2.29-8.49A13.06,13.06,0,0,0,145.3,209.58Z"/><path class="cls-2" d="M422.45,209.58q-4.15-1.52-18.46-1.51H383l-8.67,41.21h9.06q23.28,0,31.07-2.91A25.35,25.35,0,0,0,426.68,237a24.18,24.18,0,0,0,4.49-14.12,14.69,14.69,0,0,0-2.29-8.49A13.09,13.09,0,0,0,422.45,209.58Z"/><path class="cls-3" d="M256,0C114.62,0,0,114.62,0,256S114.62,512,256,512,512,397.38,512,256,397.39,0,256,0ZM179.23,241.48Q175,251.71,169,257.85a43.73,43.73,0,0,1-13.1,9.31q-7,3.16-18.89,4.83Q130,273,111,273H92.24L80.85,327.41H51.42L81.34,184.59h58q15.5,0,24.5,3.65a29.59,29.59,0,0,1,14.27,12.08q5.26,8.43,5.26,20.12A54.89,54.89,0,0,1,179.23,241.48Zm90.51,85.93,13.35-63.8H227.85l-13.34,63.8H185.09L215,184.59h29.33l-11.51,55.14h55.24l11.6-55.14H329L299.16,327.41Zm176.37-69.56a43.73,43.73,0,0,1-13.1,9.31q-7,3.16-18.9,4.83-6.9,1-25.92,1h-18.8L358,327.41H328.58l29.91-142.82h58.06q15.48,0,24.5,3.65a29.63,29.63,0,0,1,14.27,12.08q5.26,8.43,5.26,20.12a55.07,55.07,0,0,1-4.19,21A49.56,49.56,0,0,1,446.11,257.85Z"/></g></g></svg>