<svg xmlns="http://www.w3.org/2000/svg" xmlns:xlink="http://www.w3.org/1999/xlink" viewBox="0 0 512 512"><defs><style>.cls-1{fill:url(#linear-gradient);}.cls-2{fill:url(#linear-gradient-2);}</style><linearGradient id="linear-gradient" x1="257.46" y1="-3.95" x2="257.46" y2="512.5" gradientUnits="userSpaceOnUse"><stop offset="0" stop-color="#4498f9"/><stop offset="0.72" stop-color="#235fa4"/></linearGradient><linearGradient id="linear-gradient-2" x1="256" y1="-3.95" x2="256" y2="512.5" xlink:href="#linear-gradient"/></defs><title>Asset 98</title><g id="Layer_2" data-name="Layer 2"><g id="Layer_1-2" data-name="Layer 1"><path class="cls-1" d="M255.07,114.56h0l-104,231.27,38.77-.71L210.72,293h44.35l.1-.05,48.73.05,22.82,52.86,37.1.69-108.75-232Zm35.39,147.61H256.75l-1.68-.06H224.4l30.95-73.4Z"/><path class="cls-2" d="M256,0C114.62,0,0,114.62,0,256S114.62,512,256,512,512,397.39,512,256,397.39,0,256,0ZM398.12,362.62l-142.48,79L113.89,363.67,87.32,143.37,255.46,84.2l169.22,58.13Z"/></g></g></svg>