<svg xmlns="http://www.w3.org/2000/svg" xmlns:xlink="http://www.w3.org/1999/xlink" viewBox="0 0 512 512"><defs><style>.cls-1{fill:url(#linear-gradient);}</style><linearGradient id="linear-gradient" x1="256" y1="12.79" x2="256" y2="508.85" gradientUnits="userSpaceOnUse"><stop offset="0" stop-color="#4498f9"/><stop offset="0.72" stop-color="#235fa4"/></linearGradient></defs><title>Asset 99</title><g id="Layer_2" data-name="Layer 2"><g id="Layer_1-2" data-name="Layer 1"><polygon class="cls-1" points="308.13 193.12 305.41 230.19 170.41 231.78 174.05 266.41 302.33 266.06 296.77 316.71 255.98 327.7 255.96 327.72 215.23 316.73 212.5 286.33 175.81 286.33 181.03 344.93 255.94 365.68 256 365.66 330.95 344.93 340.99 232.88 344.31 195.5 347.58 159.03 256 159.03 164.42 159.03 166.8 193.51 308.13 193.12"/><path class="cls-1" d="M256,0C114.61,0,0,114.62,0,256S114.61,512,256,512,512,397.39,512,256,397.38,0,256,0ZM374.26,395.77,256,428.81,137.7,395.75,111.36,98.19H400.64Z"/></g></g></svg>