<svg xmlns="http://www.w3.org/2000/svg" xmlns:xlink="http://www.w3.org/1999/xlink" viewBox="0 0 512 512"><defs><style>.cls-1{fill:url(#linear-gradient);}.cls-2{fill:url(#linear-gradient-2);}</style><linearGradient id="linear-gradient" x1="256" y1="12.79" x2="256" y2="508.85" gradientUnits="userSpaceOnUse"><stop offset="0" stop-color="#4498f9"/><stop offset="0.72" stop-color="#235fa4"/></linearGradient><linearGradient id="linear-gradient-2" x1="255.99" y1="12.79" x2="255.99" y2="508.85" xlink:href="#linear-gradient"/></defs><title>Asset 100</title><g id="Layer_2" data-name="Layer 2"><g id="Layer_1-2" data-name="Layer 1"><path class="cls-1" d="M256,0C114.62,0,0,114.62,0,256S114.62,512,256,512,512,397.38,512,256,397.38,0,256,0ZM375.65,395.82,256,429.25,136.31,395.8l-26.66-301h292.7Z"/><polygon class="cls-2" points="256 267.94 301.14 267.94 296.87 315.83 256 326.96 255.94 327 215.11 315.88 212.39 285.1 175.59 285.1 180.86 344.41 255.96 365.4 256 365.38 331.14 344.41 341.19 231.02 256 231.02 207.58 231.02 204.24 193.2 256 193.2 344.54 193.2 347.8 156.3 256 156.3 164.18 156.3 174.09 267.94 256 267.94"/></g></g></svg>