<svg xmlns="http://www.w3.org/2000/svg" xmlns:xlink="http://www.w3.org/1999/xlink" viewBox="0 0 512 512"><defs><style>.cls-1{fill:url(#linear-gradient);}.cls-2{fill:url(#linear-gradient-2);}.cls-3{fill:url(#linear-gradient-3);}</style><linearGradient id="linear-gradient" x1="315.52" y1="12.79" x2="315.52" y2="508.85" gradientUnits="userSpaceOnUse"><stop offset="0" stop-color="#4498f9"/><stop offset="0.72" stop-color="#235fa4"/></linearGradient><linearGradient id="linear-gradient-2" x1="199.06" y1="12.79" x2="199.06" y2="508.85" xlink:href="#linear-gradient"/><linearGradient id="linear-gradient-3" x1="256" y1="12.79" x2="256" y2="508.85" xlink:href="#linear-gradient"/></defs><title>Asset 101</title><g id="Layer_2" data-name="Layer 2"><g id="Layer_1-2" data-name="Layer 1"><polygon class="cls-1" points="359.56 236.05 300.21 240.11 300.21 186.34 362.01 186.34 365.1 151.4 265.94 151.4 265.94 286.87 323.94 276.93 320.01 322.72 265.94 332.66 265.94 367.76 350.13 347.64 359.56 236.05"/><polygon class="cls-2" points="246.07 151.4 211.69 151.4 211.69 327.02 152.05 312.23 152.05 347.33 246.07 367.76 246.07 151.4"/><path class="cls-3" d="M256,0C114.62,0,0,114.61,0,256S114.62,512,256,512,512,397.38,512,256,397.39,0,256,0ZM382,402.89l-126,35.2L130,402.87l-28.07-317H410.08Z"/></g></g></svg>