<svg xmlns="http://www.w3.org/2000/svg" xmlns:xlink="http://www.w3.org/1999/xlink" viewBox="0 0 512 512"><defs><style>.cls-1{fill:url(#linear-gradient);}.cls-2{fill:url(#linear-gradient-2);}.cls-3{fill:url(#linear-gradient-3);}.cls-4{fill:url(#linear-gradient-4);}.cls-5{fill:url(#linear-gradient-5);}.cls-6{fill:url(#linear-gradient-6);}.cls-7{fill:url(#linear-gradient-7);}.cls-8{fill:url(#linear-gradient-8);}.cls-9{fill:url(#linear-gradient-9);}.cls-10{fill:url(#linear-gradient-10);}.cls-11{fill:url(#linear-gradient-11);}.cls-12{fill:url(#linear-gradient-12);}.cls-13{fill:url(#linear-gradient-13);}.cls-14{fill:url(#linear-gradient-14);}</style><linearGradient id="linear-gradient" x1="193.3" y1="12.79" x2="193.3" y2="508.85" gradientUnits="userSpaceOnUse"><stop offset="0" stop-color="#4498f9"/><stop offset="0.72" stop-color="#235fa4"/></linearGradient><linearGradient id="linear-gradient-2" x1="255.98" y1="12.79" x2="255.98" y2="508.85" xlink:href="#linear-gradient"/><linearGradient id="linear-gradient-3" x1="337.76" y1="12.79" x2="337.76" y2="508.85" xlink:href="#linear-gradient"/><linearGradient id="linear-gradient-4" x1="336.94" y1="12.79" x2="336.94" y2="508.85" xlink:href="#linear-gradient"/><linearGradient id="linear-gradient-5" x1="318.6" y1="12.79" x2="318.6" y2="508.85" xlink:href="#linear-gradient"/><linearGradient id="linear-gradient-6" x1="256" y1="12.79" x2="256" y2="508.85" xlink:href="#linear-gradient"/><linearGradient id="linear-gradient-7" x1="174.55" y1="12.79" x2="174.55" y2="508.85" xlink:href="#linear-gradient"/><linearGradient id="linear-gradient-8" x1="174.51" y1="12.79" x2="174.51" y2="508.85" xlink:href="#linear-gradient"/><linearGradient id="linear-gradient-9" x1="401.73" y1="12.79" x2="401.73" y2="508.85" xlink:href="#linear-gradient"/><linearGradient id="linear-gradient-10" x1="319.31" y1="12.79" x2="319.31" y2="508.85" xlink:href="#linear-gradient"/><linearGradient id="linear-gradient-11" x1="110.3" y1="12.79" x2="110.3" y2="508.85" xlink:href="#linear-gradient"/><linearGradient id="linear-gradient-12" x1="256" y1="12.79" x2="256" y2="508.85" xlink:href="#linear-gradient"/><linearGradient id="linear-gradient-13" x1="257.05" y1="12.79" x2="257.05" y2="508.85" xlink:href="#linear-gradient"/><linearGradient id="linear-gradient-14" x1="193.62" y1="12.79" x2="193.62" y2="508.85" xlink:href="#linear-gradient"/></defs><title>Asset 103</title><g id="Layer_2" data-name="Layer 2"><g id="Layer_1-2" data-name="Layer 1"><path class="cls-1" d="M155.12,179.72c15.9-3.64,32.09-5.53,48.25-7.53a8.78,8.78,0,0,0,6.72-4,374.53,374.53,0,0,1,30.7-38c2.22-2.4,2-3.84-.31-5.9a218.86,218.86,0,0,0-28.7-22.34c-10.73-6.8-21.89-12.75-34.55-15.16-15.67-3-24,1.83-29.16,16.93-3.24,9.48-3.7,19.36-3.81,29.27a202,202,0,0,0,5.51,43.23C150.52,179.38,151.72,180.5,155.12,179.72Z"/><path class="cls-2" d="M231.86,170c16,0,31.4,0,46.78,0,.28,0,.56-.32,1.46-.85-6.86-9.53-14.31-18.17-21.82-26.77-1.85-2.12-3.07-1.51-4.54.23-4,4.75-8.18,9.4-12.13,14.22C238.28,160.86,234.61,164.7,231.86,170Z"/><path class="cls-3" d="M321.85,320.22a311.34,311.34,0,0,0,32.24-5.63c2.14-.49,3-1.35,2.2-3.6-3.86-11.09-7.75-22.18-13.34-34-8,14.34-15.12,27.59-23.19,40.31C318,320.06,319.2,320.53,321.85,320.22Z"/><path class="cls-4" d="M353.65,197.76c-11.4-2.6-22.84-4.92-35.54-5.9,8.5,14.22,16.61,27.6,24.59,42.65,5.49-11.44,9-22.46,12.82-33.34C356.16,199.34,355.65,198.22,353.65,197.76Z"/><path class="cls-5" d="M302.31,168.68a7.7,7.7,0,0,0,5.9,3.47c16.31,2.11,32.68,4,48.73,7.73,3.74.88,4.84-.51,5.52-3.86a221.05,221.05,0,0,0,4.9-43.92c-.3-11-.92-24.19-7.58-36.16-4.51-8.11-11.52-11.11-20.46-10.25A63.34,63.34,0,0,0,319.84,91c-18.35,8.07-33.83,20.22-48.46,33.67-2.4,2.21-1.69,3.51.09,5.46A405.64,405.64,0,0,1,302.31,168.68Z"/><path class="cls-6" d="M221.36,323.12c11.09-.06,22.17,0,33.26,0l35.87,0a8.33,8.33,0,0,0,7-4.27,658.1,658.1,0,0,0,33.92-59.07c1.54-3,1.29-5.31-.2-8.2q-15.51-30.09-33.95-58.46a8.68,8.68,0,0,0-7.61-4.36q-33.81-1.56-67.6,0a8.27,8.27,0,0,0-7.23,4.12,575.72,575.72,0,0,0-34.22,59.48,7.32,7.32,0,0,0-.12,7.26,575.18,575.18,0,0,0,34.58,59.88C216.63,321.86,218.46,323.13,221.36,323.12Zm34.12-105.71a37.82,37.82,0,0,1,37.85,37.66,37.71,37.71,0,0,1-75.41.35A37.89,37.89,0,0,1,255.48,217.41Z"/><path class="cls-7" d="M158.24,315.32a301.76,301.76,0,0,0,32.32,5.26c2.6.28,3.14-.79,1.77-3-7.85-12.64-15.29-25.53-23-39.75-5.75,11.81-9.21,23.05-13.08,34.13C155.6,313.94,156.33,314.91,158.24,315.32Z"/><path class="cls-8" d="M158.84,197.43c-2,.43-3,1.17-2.21,3.56,3.69,10.81,7.15,21.7,12.32,32.54,2.93-3.65,23.06-39,23.72-41.61C181.15,192.74,170,195.1,158.84,197.43Z"/><path class="cls-9" d="M433.58,231.23c-16.85-13.37-36.39-21.24-56.69-27.55-3.06-1-3.59.74-4.24,2.86-4.84,15.76-11.15,31-17.92,46-1.14,2.54-.78,4.54.29,6.87,6.85,15,13.39,30.08,18.22,45.85,1.13,3.71,2.78,3.83,6,2.78a206,206,0,0,0,29.42-11.75C421.89,289.6,434.49,282,443.76,270c3.25-4.2,5.46-8.83,5.66-14.25a21.69,21.69,0,0,0-4.1-12.13A55.39,55.39,0,0,0,433.58,231.23Z"/><path class="cls-10" d="M358.46,332.2a397,397,0,0,1-49.83,7.59,8.13,8.13,0,0,0-6.29,3.93A372.89,372.89,0,0,1,272.1,382.1c-2.32,2.55-2.16,4.07.33,6.31A245.31,245.31,0,0,0,295,406.82c11.42,8,23.35,15.08,37.1,18.29,17.47,4.08,27-1.61,32.24-18.86a100.41,100.41,0,0,0,3.85-27.75,218.56,218.56,0,0,0-4.88-42.78C362.71,332.84,361.72,331.46,358.46,332.2Z"/><path class="cls-11" d="M157.37,252.75a403.69,403.69,0,0,1-17.83-46c-1.17-3.67-2.77-3.91-6-2.87a218.58,218.58,0,0,0-30.07,11.53C89.5,222.21,76.24,230,66.89,243a22.61,22.61,0,0,0-4.53,13.1c.27,7.64,4.69,13.82,10.12,19.32,17.35,17.56,39.38,26.66,62.32,34.05,2.42.78,3.38,0,4.11-2.27a432.93,432.93,0,0,1,18.75-48.45A6.66,6.66,0,0,0,157.37,252.75Z"/><path class="cls-12" d="M256,0C114.62,0,0,114.61,0,256S114.62,512,256,512,512,397.38,512,256,397.38,0,256,0ZM418.32,311.67a209.76,209.76,0,0,1-33.76,13.61c-3.75,1.18-4.86,2.58-3.86,6.57A186.09,186.09,0,0,1,386.06,386a95,95,0,0,1-7.36,33.35c-8.74,20.3-25.82,28.54-49.11,23.65-21.14-4.44-38.62-16-55.2-29.11-5-4-9.87-8.22-14.51-12.65-2.48-2.36-4-2.12-6.4.1-15.35,14.25-32,26.61-51.24,35.23a88.26,88.26,0,0,1-29.58,7.66c-19.57,1.48-35-9.59-41.63-30a112.12,112.12,0,0,1-4.94-41.63,229,229,0,0,1,5.8-39.6c1-4.21-.36-5.66-4.28-6.91C106.16,319.28,85.73,310.3,68,296a81.29,81.29,0,0,1-11.89-11.64c-17.1-20.88-15.42-43,4.49-62,14.6-13.93,32.12-22.89,50.72-30,5.83-2.23,11.74-4.29,17.73-6,3.2-.94,4-2.2,3.23-5.51a243.64,243.64,0,0,1-6.07-41.65c-.79-14.18.47-28.13,4.84-41.64,7.57-23.42,25.7-33.5,50.56-28.3,20.76,4.33,38.19,15.3,54.69,27.94,5.78,4.43,11.28,9.24,16.62,14.19,2.49,2.32,3.92,2.22,6.36-.07,15.63-14.7,32.53-27.62,52.25-36.48a79.39,79.39,0,0,1,25.48-7c19.95-1.8,34.31,7,41.76,25.69a98.45,98.45,0,0,1,4.89,17c1.64,8,1.78,16.19,1.84,24.34.16,15.2-2.25,30.09-5.6,44.83-1,4.31,0,6.08,4.31,7.4,20.33,6.26,39.79,14.46,57,27.21a85.44,85.44,0,0,1,16.52,15.77c13,16.4,13.05,34.61.25,51.13C447.48,294.84,433.38,303.89,418.32,311.67Z"/><path class="cls-13" d="M235.46,342.08c-2.33,0-3.4.85-1.72,3.08q9.84,13.05,20.92,25.08c1.33,1.45,2.49,1.63,3.85.09a344.5,344.5,0,0,0,22.68-28.25Z"/><path class="cls-14" d="M210.24,343.91a8.59,8.59,0,0,0-6.86-3.8,432.32,432.32,0,0,1-48.33-7c-3.59-.75-4.87.42-5.64,3.82-3.65,16.14-5.82,32.42-5.06,49,.46,9.91,1.75,19.67,6.48,28.67,4.23,8.06,10.72,12,16.66,11.67,10.19-.33,16.86-2,23.37-4.6,19.18-7.6,35.25-19.84,50.39-33.51,2-1.85,2.55-3.26.41-5.53A365.13,365.13,0,0,1,210.24,343.91Z"/></g></g></svg>