<svg xmlns="http://www.w3.org/2000/svg" xmlns:xlink="http://www.w3.org/1999/xlink" viewBox="0 0 512 512"><defs><style>.cls-1{fill:url(#linear-gradient);}.cls-2{fill:url(#linear-gradient-2);}.cls-3{fill:url(#linear-gradient-3);}</style><linearGradient id="linear-gradient" x1="341.63" y1="12.79" x2="341.63" y2="508.85" gradientUnits="userSpaceOnUse"><stop offset="0" stop-color="#4498f9"/><stop offset="0.72" stop-color="#235fa4"/></linearGradient><linearGradient id="linear-gradient-2" x1="235.16" y1="12.79" x2="235.16" y2="508.85" xlink:href="#linear-gradient"/><linearGradient id="linear-gradient-3" x1="256" y1="12.79" x2="256" y2="508.85" xlink:href="#linear-gradient"/></defs><title>Asset 102</title><g id="Layer_2" data-name="Layer 2"><g id="Layer_1-2" data-name="Layer 1"><path class="cls-1" d="M330.55,325.19C351,335.19,356,339.72,356,348.41c0,4.52-.59,6.07-3.57,8.81-4.76,4.52-12.5,6.43-23,5.72a55,55,0,0,1-28.22-9.77l-6-4.29V382l7.51,2.5c21,6.91,47.75,6.19,64.18-1.55a43.51,43.51,0,0,0,19.18-19.53c3.81-8.34,3.68-26.91-.24-35.72-4.41-9.89-14.06-17.87-33.11-27.27-9.05-4.53-18.33-10-20.83-12.39-3.94-3.69-4.53-5-4.53-9.76,0-4.41.59-6.07,3.45-8.82a22.91,22.91,0,0,1,8.1-4.88c10.48-3.09,27.63-.83,38.34,5.24a60.71,60.71,0,0,0,5.6,2.86c.24,0,.48-6.67.48-14.88V242.9l-3.22-1.31a111.38,111.38,0,0,0-12.27-3c-22.86-4.16-45.36-.36-58.94,10-16,12-19.53,38.46-7.62,55.73C306.73,312.21,312.44,316.25,330.55,325.19Z"/><polygon class="cls-2" points="219.08 389.37 251.24 389.37 251.24 264.33 290.54 264.33 290.54 250.64 290.54 236.95 179.79 236.95 179.79 264.34 219.08 264.34 219.08 389.37"/><path class="cls-3" d="M256,0C114.62,0,0,114.61,0,256S114.62,512,256,512,512,397.39,512,256,397.38,0,256,0ZM408.42,408.42H103.58V103.58H408.42Z"/></g></g></svg>