<svg xmlns="http://www.w3.org/2000/svg" xmlns:xlink="http://www.w3.org/1999/xlink" viewBox="0 0 512 426.68"><defs><style>.cls-1{fill:url(#linear-gradient);}.cls-2{fill:url(#linear-gradient-2);}.cls-3{fill:url(#linear-gradient-3);}.cls-4{fill:url(#linear-gradient-4);}</style><linearGradient id="linear-gradient" x1="170.43" y1="16.35" x2="170.43" y2="402.03" gradientUnits="userSpaceOnUse"><stop offset="0" stop-color="#0098fb"/><stop offset="0.72" stop-color="#005fa7"/></linearGradient><linearGradient id="linear-gradient-2" x1="341.57" y1="16.35" x2="341.57" y2="402.03" xlink:href="#linear-gradient"/><linearGradient id="linear-gradient-3" x1="253.55" y1="16.35" x2="253.55" y2="402.03" xlink:href="#linear-gradient"/><linearGradient id="linear-gradient-4" x1="256" y1="16.35" x2="256" y2="402.03" xlink:href="#linear-gradient"/></defs><title>Asset 3</title><g id="Layer_2" data-name="Layer 2"><g id="Layer_1-2" data-name="Layer 1"><path class="cls-1" d="M135.89,172.07l57.55,49A8.9,8.9,0,0,0,205,207.53l-49.6-42.23L205,123.06a8.89,8.89,0,0,0-11.53-13.54l-57.55,49a8.89,8.89,0,0,0,0,13.54Z"/><path class="cls-2" d="M306,220.07a8.89,8.89,0,0,0,12.53,1l57.55-49a8.89,8.89,0,0,0,0-13.54l-57.55-49A8.89,8.89,0,0,0,307,123.06l49.6,42.24L307,207.53A8.91,8.91,0,0,0,306,220.07Z"/><path class="cls-3" d="M233.78,259.76a9,9,0,0,0,1.85.2,8.91,8.91,0,0,0,8.69-7.07L280.18,82.6a8.89,8.89,0,1,0-17.4-3.67l-35.87,170.3A8.9,8.9,0,0,0,233.78,259.76Z"/><path class="cls-4" d="M469.33,0H42.67A42.73,42.73,0,0,0,0,42.67v256a42.73,42.73,0,0,0,42.67,42.67H195.93A111.27,111.27,0,0,1,172,402.87l-5.39,6.74h-30a8.54,8.54,0,0,0,0,17.07H375.47a8.54,8.54,0,0,0,0-17.07h-30L340,402.87a111.44,111.44,0,0,1-24-61.52H469.33A42.72,42.72,0,0,0,512,298.67v-256A42.73,42.73,0,0,0,469.33,0ZM42.67,17.07H469.33a25.61,25.61,0,0,1,24,17.07H18.64A25.61,25.61,0,0,1,42.67,17.07Zm281,392.53H188.3A128.81,128.81,0,0,0,213,341.34h85.85A128.59,128.59,0,0,0,323.7,409.6ZM494.93,298.67a25.6,25.6,0,0,1-25.6,25.6H42.67a25.6,25.6,0,0,1-25.6-25.6v-8.53H494.93Zm0-25.6H17.07V51.2H494.93Z"/><path class="cls-4" d="M238.93,315.74h34.14a8.54,8.54,0,0,0,0-17.07H238.93a8.54,8.54,0,0,0,0,17.07Z"/></g></g></svg>