<svg xmlns="http://www.w3.org/2000/svg" xmlns:xlink="http://www.w3.org/1999/xlink" viewBox="0 0 463.03 479"><defs><style>.cls-1{fill:url(#linear-gradient);}.cls-2{fill:url(#linear-gradient-2);}.cls-3{fill:url(#linear-gradient-3);}.cls-4{fill:url(#linear-gradient-4);}.cls-5{fill:url(#linear-gradient-5);}.cls-6{fill:url(#linear-gradient-6);}.cls-7{fill:url(#linear-gradient-7);}.cls-8{fill:url(#linear-gradient-8);}.cls-9{fill:url(#linear-gradient-9);}</style><linearGradient id="linear-gradient" x1="327.33" y1="4" x2="327.33" y2="498.33" gradientUnits="userSpaceOnUse"><stop offset="0" stop-color="#0098fb"/><stop offset="0.72" stop-color="#005fa7"/></linearGradient><linearGradient id="linear-gradient-2" x1="327.36" y1="4" x2="327.36" y2="498.33" xlink:href="#linear-gradient"/><linearGradient id="linear-gradient-3" x1="207.59" y1="4" x2="207.59" y2="498.33" xlink:href="#linear-gradient"/><linearGradient id="linear-gradient-4" x1="207.34" y1="4" x2="207.34" y2="498.33" xlink:href="#linear-gradient"/><linearGradient id="linear-gradient-5" x1="135.69" y1="4" x2="135.69" y2="498.33" xlink:href="#linear-gradient"/><linearGradient id="linear-gradient-6" x1="135.74" y1="4" x2="135.74" y2="498.33" xlink:href="#linear-gradient"/><linearGradient id="linear-gradient-7" x1="295.39" y1="4" x2="295.39" y2="498.33" xlink:href="#linear-gradient"/><linearGradient id="linear-gradient-8" x1="295.42" y1="4" x2="295.42" y2="498.33" xlink:href="#linear-gradient"/><linearGradient id="linear-gradient-9" x1="123.76" y1="4" x2="123.76" y2="498.33" xlink:href="#linear-gradient"/></defs><title>Asset 8</title><g id="Layer_2" data-name="Layer 2"><g id="Layer_1-2" data-name="Layer 1"><path class="cls-1" d="M457,318l-25-6.26a108.46,108.46,0,0,0-8.29-20L437,269.6a8,8,0,0,0-1.19-9.76l-24.92-24.95a8,8,0,0,0-9.76-1.19L379,247c-2.87-1.54-5.83-3-8.84-4.26a110.29,110.29,0,0,0-11.18-4l-6.26-25a8,8,0,0,0-7.74-6.06H309.74a8,8,0,0,0-7.75,6.06l-6.25,25a108.26,108.26,0,0,0-20,8.29L253.63,233.7a8,8,0,0,0-9.75,1.19l-25,24.92a8,8,0,0,0-1.19,9.76L231,291.71a108.46,108.46,0,0,0-8.29,20l-25,6.26a8,8,0,0,0-6.05,7.75v35.24a8,8,0,0,0,6.05,7.74l25,6.26a108.17,108.17,0,0,0,8.29,20L217.73,417a8,8,0,0,0,1.19,9.76l24.92,24.92a8,8,0,0,0,9.76,1.2l22.14-13.29a107.81,107.81,0,0,0,20,8.3L302,473a8,8,0,0,0,7.75,6.05H345a8,8,0,0,0,7.74-6.05l6.27-25a108.09,108.09,0,0,0,20-8.3l22.14,13.29a8,8,0,0,0,9.75-1.2l24.92-24.92a8,8,0,0,0,1.2-9.76l-13.28-22.14a108.17,108.17,0,0,0,8.29-20l25-6.26a8,8,0,0,0,6-7.74V325.71A8,8,0,0,0,457,318Zm-9.91,36.75-23.5,5.88a8,8,0,0,0-5.81,5.78A92.75,92.75,0,0,1,407.61,391a8,8,0,0,0,0,8.19l12.47,20.76L404,436.07,383.25,423.6a8,8,0,0,0-8.19,0,92.39,92.39,0,0,1-24.61,10.2,8,8,0,0,0-5.78,5.81l-5.93,23.49H316l-5.87-23.5a8,8,0,0,0-5.78-5.81,92.61,92.61,0,0,1-24.61-10.21,8,8,0,0,0-8.19,0l-20.76,12.47L234.62,420l12.47-20.76a8,8,0,0,0,0-8.19,92.39,92.39,0,0,1-10.2-24.61,8,8,0,0,0-5.81-5.78l-23.49-5.93V332l23.5-5.88a8,8,0,0,0,5.81-5.79,92.55,92.55,0,0,1,10.21-24.6,8,8,0,0,0,0-8.19l-12.47-20.77,16.07-16.13,20.76,12.47a8,8,0,0,0,8.19,0,92.39,92.39,0,0,1,24.61-10.2,8,8,0,0,0,5.78-5.82L316,223.56h22.77l5.88,23.5a8,8,0,0,0,5.78,5.81,92.19,92.19,0,0,1,24.6,10.2,8,8,0,0,0,8.2,0L404,250.6l16.14,16.08-12.47,20.76a8,8,0,0,0,0,8.19,92.72,92.72,0,0,1,10.2,24.61,8,8,0,0,0,5.82,5.78L447.13,332Z"/><path class="cls-2" d="M327.36,279.45a63.88,63.88,0,1,0,63.88,63.88A63.87,63.87,0,0,0,327.36,279.45Zm0,111.79a47.91,47.91,0,1,1,47.91-47.91A47.91,47.91,0,0,1,327.36,391.24Z"/><path class="cls-3" d="M31.94,407.25V439.1a8,8,0,0,0,8,8H242.08v-16H48a0,0,0,0,1,0,0V407.25a0,0,0,0,1,0-.05h95.77a8,8,0,0,0,3.57-.79l31.93-16a8,8,0,0,0,0-14.3l-31.93-16a8,8,0,0,0-3.57-.88H48a0,0,0,0,1,0,0V87.87a0,0,0,0,1,0,0H351.27a32,32,0,0,0,32-32V40a8,8,0,0,0-8-8H359.3a8,8,0,0,0-8,8h0a8,8,0,0,0,8,8h7.94a0,0,0,0,1,0,0V55.4c0,8.62-6.62,16.06-15.23,16.44a16,16,0,0,1-16.7-16V32a16,16,0,0,1,16-16h31.85a16,16,0,0,1,16,16V245.54a0,0,0,0,0,0,0h15.89a0,0,0,0,0,0,0V32a32,32,0,0,0-32-32H32A32,32,0,0,0,0,32V55.89A31.94,31.94,0,0,0,31.9,87.83a0,0,0,0,1,0,0V359.26a0,0,0,0,1,0,0H24.57C10.43,359.3-.94,370.87.06,385A24,24,0,0,0,24,407.2h8A0,0,0,0,1,31.94,407.25ZM16,55.85V32A16,16,0,0,1,32,16H323.74a0,0,0,0,1,0,.06,31.59,31.59,0,0,0-4.4,15.91v24a31.59,31.59,0,0,0,4.4,15.91,0,0,0,0,1,0,.06H32A16,16,0,0,1,16,55.85ZM157.73,383.29l-15.89,7.94h-6.06s0,0,0-.05V375.31a0,0,0,0,1,0,0h6.06l15.89,7.94A0,0,0,0,1,157.73,383.29ZM16,382.76a8.2,8.2,0,0,1,8.29-7.49h95.45a0,0,0,0,1,0,0v15.88a0,0,0,0,1,0,.05H24A8,8,0,0,1,16,382.76Z"/><path class="cls-4" d="M343.39,119.77h0a8,8,0,0,0-8-8H207.6a8,8,0,0,0-5.65,2.34l-14.59,14.59a87.55,87.55,0,0,0-113.73,8.78,8,8,0,0,0,0,11.29l56.46,56.46a8,8,0,0,0,5.65,2.35h79.84a8,8,0,0,0,8-8,87.4,87.4,0,0,0-24.18-60.35l11.52-11.51H335.41A8,8,0,0,0,343.39,119.77ZM207.15,191.63H139L90.88,143.46a71.63,71.63,0,0,1,85-3.31l-16.23,16.23a8,8,0,0,0,0,11.29h0a8,8,0,0,0,11.29,0l17.16-17.16A71.62,71.62,0,0,1,207.15,191.63Z"/><path class="cls-5" d="M79.75,231.55H191.63a8,8,0,0,1,8,8h0a8,8,0,0,1-8,8H79.75a8,8,0,0,1-8-8h0A8,8,0,0,1,79.75,231.55Z"/><path class="cls-6" d="M79.84,263.49H191.63a8,8,0,0,1,8,8h0a8,8,0,0,1-8,8H79.84a8,8,0,0,1-8-8h0A8,8,0,0,1,79.84,263.49Z"/><path class="cls-7" d="M255.44,143.72h79.91a8,8,0,0,1,8,8h0a8,8,0,0,1-8,8H255.44a8,8,0,0,1-8-8h0A8,8,0,0,1,255.44,143.72Z"/><path class="cls-8" d="M255.5,175.66h79.85a8,8,0,0,1,8,8h0a8,8,0,0,1-8,8H255.5a8,8,0,0,1-8-8h0A8,8,0,0,1,255.5,175.66Z"/><path class="cls-9" d="M79.84,295.42h87.83a8,8,0,0,1,8,8h0a8,8,0,0,1-8,8H79.84a8,8,0,0,1-8-8h0A8,8,0,0,1,79.84,295.42Z"/></g></g></svg>