<svg xmlns="http://www.w3.org/2000/svg" xmlns:xlink="http://www.w3.org/1999/xlink" viewBox="0 0 498.96 512"><defs><style>.cls-1{fill:url(#linear-gradient);}.cls-2{fill:url(#linear-gradient-2);}.cls-3{fill:url(#linear-gradient-3);}.cls-4{fill:url(#linear-gradient-4);}.cls-5{fill:url(#linear-gradient-5);}.cls-6{fill:url(#linear-gradient-6);}.cls-7{fill:url(#linear-gradient-7);}.cls-8{fill:url(#linear-gradient-8);}</style><linearGradient id="linear-gradient" x1="143.11" y1="6.34" x2="143.11" y2="513.54" gradientUnits="userSpaceOnUse"><stop offset="0" stop-color="#0098fb"/><stop offset="0.72" stop-color="#005fa7"/></linearGradient><linearGradient id="linear-gradient-2" x1="239.91" y1="6.34" x2="239.91" y2="513.54" xlink:href="#linear-gradient"/><linearGradient id="linear-gradient-3" x1="143.11" y1="6.34" x2="143.11" y2="513.54" xlink:href="#linear-gradient"/><linearGradient id="linear-gradient-4" x1="315.36" y1="6.34" x2="315.36" y2="513.54" xlink:href="#linear-gradient"/><linearGradient id="linear-gradient-5" x1="159.44" y1="6.34" x2="159.44" y2="513.54" xlink:href="#linear-gradient"/><linearGradient id="linear-gradient-6" x1="145.08" y1="6.34" x2="145.08" y2="513.54" xlink:href="#linear-gradient"/><linearGradient id="linear-gradient-7" x1="87.37" y1="6.34" x2="87.37" y2="513.54" xlink:href="#linear-gradient"/><linearGradient id="linear-gradient-8" x1="143.11" y1="6.34" x2="143.11" y2="513.54" xlink:href="#linear-gradient"/></defs><title>Asset 6</title><g id="Layer_2" data-name="Layer 2"><g id="Layer_1-2" data-name="Layer 1"><path class="cls-1" d="M185.2,25.25H101a8.42,8.42,0,0,0,0,16.84H185.2a8.42,8.42,0,0,0,0-16.84Z"/><path class="cls-2" d="M244.12,25.25h-8.41a8.42,8.42,0,0,0,0,16.84h8.41a8.42,8.42,0,0,0,0-16.84Z"/><path class="cls-3" d="M153.56,429.32h-20.9a23.26,23.26,0,0,0-23.23,23.22v4.07a23.26,23.26,0,0,0,23.22,23.22h20.9a23.25,23.25,0,0,0,23.23-23.22v-4.07A23.25,23.25,0,0,0,153.56,429.32Zm6.38,27.29a6.38,6.38,0,0,1-6.38,6.38h-20.9a6.39,6.39,0,0,1-6.39-6.38v-4.07a6.4,6.4,0,0,1,6.39-6.39h20.89a6.4,6.4,0,0,1,6.39,6.39Z"/><path class="cls-4" d="M358.84,208.67l-.5.33a33,33,0,0,0-13.7,19.4c-11.71-8.57-27.59-9.71-39.77-1.51a33.39,33.39,0,0,0-14,21.81c-11.23-6.42-25.17-6.53-36.14.86l-.53.35a31.26,31.26,0,0,0-12.61,16.37l-46.21-68.63c-11.16-16.58-33.16-21.38-48.86-10.8s-19.46,32.69-8.31,49.27l91.54,136.24-14-4.17a46.86,46.86,0,0,0-37.18,4.07,46,46,0,0,0-21.82,29.43l-3,10.07a7.18,7.18,0,0,0,3.46,8.33l149.55,81.42c27.34,14.87,59.63,13.89,84.22-2.67l73.46-49.46,0-.06c37.24-25.08,45.68-77.73,19-117.45-11.94-17.76-20.92-30.95-28.13-41.69-19.28-28.72-26.44-39.29-47.8-70.86C396.28,202.8,374.5,198.12,358.84,208.67Zm84.39,89.56L471.31,340c22.27,33.15,15.45,77-15.26,97.67l-73.11,49.22c-20.12,13.55-46.71,14.26-69.32,2l-144.44-78.6,1.37-4.69.09-.36a31.86,31.86,0,0,1,15.06-20.51A32.58,32.58,0,0,1,211.58,382l33.18,9.91a7.18,7.18,0,0,0,8-10.89L150,228.15c-6.73-10-4.64-23.25,4.49-29.39s22.17-3.09,28.91,6.92l62,92.12c.21.32.41.65.63,1,.1.14.21.27.3.41l26.52,39.39a7.19,7.19,0,0,0,11.92-8L257.5,290c-6.5-9.66-4.2-22.16,4.69-28.15l.53-.35c9.13-6.15,22.09-3.31,28.83,6.7l24.26,36a7.18,7.18,0,0,0,11.92-8l-19-28.28c-6.74-10-5-23,4.19-29.21s21.85-2.88,28.59,7.14l18,26.68a7.19,7.19,0,0,0,11.92-8l-9.73-14.44c-6.74-10-4.38-23,4.75-29.14l.49-.33c9.11-6.14,21.9-3.16,28.65,6.8C416.85,258.94,424,269.52,443.23,298.23Z"/><path class="cls-5" d="M121,251.46a7.17,7.17,0,0,0,2-10,49.79,49.79,0,0,1,82.6-55.62,7.18,7.18,0,1,0,11.92-8A64.16,64.16,0,0,0,111,249.51,7.19,7.19,0,0,0,121,251.46Z"/><rect class="cls-6" x="12.89" y="50.31" width="264.38" height="16.77"/><rect class="cls-7" x="12.89" y="404.46" width="148.96" height="16.77"/><path class="cls-8" d="M269.38,470.83v3.82h0a13.61,13.61,0,0,1-13.59,13.59H30.43a13.6,13.6,0,0,1-13.59-13.58V30.43A13.6,13.6,0,0,1,30.43,16.84H255.78a13.61,13.61,0,0,1,13.6,13.59V252.54h0s8.14,1.83,16.83,4.16V30.43A30.46,30.46,0,0,0,255.79,0H30.43A30.46,30.46,0,0,0,0,30.43V474.65a30.46,30.46,0,0,0,30.43,30.43H255.78a30.48,30.48,0,0,0,30-25.47Z"/></g></g></svg>