<svg xmlns="http://www.w3.org/2000/svg" viewBox="0 0 512 498.22"><defs><style>.cls-1{fill:#fff;}</style></defs><title>Asset 4</title><g id="Layer_2" data-name="Layer 2"><g id="Layer_1-2" data-name="Layer 1"><path class="cls-1" d="M506.86,449.56l-46.7-28.78a10.69,10.69,0,0,0-11.89.37,11,11,0,0,0-4.56,9.09v21.18H334.54c81.94-31.53,140.1-111,140.1-204,0-111.15-83-202.89-190.37-216.71V10.94A10.91,10.91,0,0,0,273.5,0h-.05a10.86,10.86,0,0,0-5.6,1.68L254.91,9.57,221.15,30.25A10.71,10.71,0,0,0,219,32C116,49.64,37.56,139.35,37.56,247.39c0,93.05,58.16,172.5,140.11,204H0v14.51H443.71v21.35a10.91,10.91,0,0,0,10.77,10.94h0a10.86,10.86,0,0,0,5.6-1.68l12.94-7.89L506.83,468a10.8,10.8,0,0,0,0-18.42ZM257.39,21.93l9.47-5.62a3.59,3.59,0,0,1,1.76-.55,3.45,3.45,0,0,1,3.39,3.4V60a3.25,3.25,0,0,1-1.73,2.89,3.44,3.44,0,0,1-3.43-.07L232.65,42.3a3.26,3.26,0,0,1,0-5.63ZM56.72,291.6C31.79,172.82,110.25,66.82,218.84,46.78a11,11,0,0,0,2.28,1.88l46.7,28.78a10.69,10.69,0,0,0,11.89-.37A11,11,0,0,0,284.27,68V45.31c99.35,13.72,175.86,99,175.86,202.08,0,128-117.78,228.39-250.84,198.82C140.22,430.86,71.25,360.85,56.72,291.6Zm438.59,170-24.72,14.74-9.47,5.62a3.51,3.51,0,0,1-1.76.56,3.46,3.46,0,0,1-3.39-3.4V438.22a3.24,3.24,0,0,1,1.73-2.88,3.42,3.42,0,0,1,3.43.07l34.2,20.51a3.23,3.23,0,0,1,1.61,2.82A3.19,3.19,0,0,1,495.31,461.55Z"/><path class="cls-1" d="M257.32,119.34A128.05,128.05,0,0,0,128.16,248.5c.58,68.44,58.49,126.35,126.93,126.93A128,128,0,0,0,384.25,246.27C383.67,177.83,325.76,119.92,257.32,119.34Zm-1.11,241.59A113.54,113.54,0,1,1,369.74,247.39,113.54,113.54,0,0,1,256.21,360.93Z"/></g></g></svg>