<svg xmlns="http://www.w3.org/2000/svg" viewBox="0 0 499.84 380.7"><defs><style>.cls-1{fill:#fff;}</style></defs><title>Asset 3</title><g id="Layer_2" data-name="Layer 2"><g id="Layer_1-2" data-name="Layer 1"><path class="cls-1" d="M40.06,180.16H93.82a7.09,7.09,0,0,0,0-14.18H40.06a7.09,7.09,0,0,0,0,14.18Z"/><path class="cls-1" d="M103.55,200H40.06a7.09,7.09,0,1,0,0,14.18h63.49a7.09,7.09,0,0,0,0-14.18Z"/><path class="cls-1" d="M265.25,269.49H235.59a7.42,7.42,0,0,0,0,14.83h29.66a7.42,7.42,0,0,0,0-14.83Z"/><path class="cls-1" d="M76,70.26h0A7.15,7.15,0,1,0,76,56h0a7.15,7.15,0,0,0,0,14.3Z"/><path class="cls-1" d="M51.73,70.26h0a7.15,7.15,0,1,0,0-14.3h0a7.15,7.15,0,0,0,0,14.3Z"/><path class="cls-1" d="M100.29,70.26h0a7.15,7.15,0,1,0,0-14.3h0a7.15,7.15,0,0,0,0,14.3Z"/><path class="cls-1" d="M462.77,0H37.07A37.11,37.11,0,0,0,0,37.07V269.49a37.12,37.12,0,0,0,37.07,37.07H198.23A96.66,96.66,0,0,1,177.4,360l-4.68,5.86h-26.1a7.42,7.42,0,0,0,0,14.83h207.6a7.42,7.42,0,0,0,0-14.83h-26.1L323.44,360a96.71,96.71,0,0,1-20.81-53.45h131a7.06,7.06,0,0,0,2.15.34,6.93,6.93,0,0,0,2.13-.34h24.83a37.13,37.13,0,0,0,37.07-37.07V37.07A37.12,37.12,0,0,0,462.77,0ZM37.07,14.83h425.7a22.24,22.24,0,0,1,20.88,14.83H16.19A22.24,22.24,0,0,1,37.07,14.83ZM14.83,95.45H225a100,100,0,0,0,53.44,151.8H14.83Zm375.92,56.17a83,83,0,1,1-83-83A83,83,0,0,1,390.75,151.62Zm54.79,128.5-9.73,9.72L373.2,227.22a100.3,100.3,0,0,0,9.75-9.7Zm-72.3-32.87H337a99.55,99.55,0,0,0,24.73-11.47Zm-64,118.62H191.6a112.05,112.05,0,0,0,21.5-59.31h74.58A111.73,111.73,0,0,0,309.24,365.87ZM37.07,291.73a22.24,22.24,0,0,1-22.24-22.24v-7.41H388.07l29.65,29.65ZM485,269.49a22.24,22.24,0,0,1-22.24,22.24h-8.89l6.64-6.64a7.06,7.06,0,0,0,0-10l-13-13H485Zm0-22.24H432.67l-41.1-41.09A100,100,0,0,0,390.5,95.45H485Zm0-166.57H378.23a100,100,0,0,0-141,0H14.83V44.48H485Z"/><path class="cls-1" d="M117.82,132H40.06a7.09,7.09,0,0,0,0,14.18h77.76a7.09,7.09,0,0,0,0-14.18Z"/></g></g></svg>