<svg xmlns="http://www.w3.org/2000/svg" viewBox="0 0 480.96 467.96"><defs><style>.cls-1{fill:#fff;}</style></defs><title>Asset 6</title><g id="Layer_2" data-name="Layer 2"><g id="Layer_1-2" data-name="Layer 1"><path class="cls-1" d="M342.84,439.59A78,78,0,0,0,481,390c0-30.26-16.8-57.63-42.59-69.42-3.23-1.47-9.8-4.15-13.15-5.31C417.42,312.54,410.7,312,403,312a58.45,58.45,0,0,0-7.52.38,101.21,101.21,0,0,0-18.18,4.06c-28.53,9-49.14,35.58-51.94,66.47v14.18a77.18,77.18,0,0,0,8.26,28.36ZM368,443.27,370.14,426a33.08,33.08,0,0,1,65.64,0l2.15,17.26a63.48,63.48,0,0,1-69.94,0Zm20.79-74.59A14.18,14.18,0,1,1,403,382.87,14.19,14.19,0,0,1,388.78,368.68Zm62,63.35-1-7.77a47.31,47.31,0,0,0-26-36.52,28.36,28.36,0,1,0-41.73,0,47.33,47.33,0,0,0-26,36.51l-1,7.78a63.82,63.82,0,1,1,95.72,0Z"/><path class="cls-1" d="M14.57,342.33A65.59,65.59,0,1,1,102,404.09V355.56a21.57,21.57,0,0,0,7.29,1.34,21.86,21.86,0,1,0-20.52-29.15H71.53A21.82,21.82,0,1,0,51,356.9a21.52,21.52,0,0,0,7.29-1.34v48.53a65.67,65.67,0,0,1-43.73-61.76Zm58.3,0H87.45v65.15a62,62,0,0,1-14.58,0ZM102,335a7.29,7.29,0,1,1,7.29,7.29A7.31,7.31,0,0,1,102,335ZM58.3,335A7.29,7.29,0,1,1,51,327.75,7.3,7.3,0,0,1,58.3,335Zm36.44,116.6H65.59a7.3,7.3,0,0,1-7.29-7.29v-25a78.62,78.62,0,0,0,43.72,0v25A7.3,7.3,0,0,1,94.74,451.64Zm31.88-44.11a81,81,0,0,0,20.63-21.46l6.88-12.87a79.75,79.75,0,0,0,6.19-30.87c0-2.46-.22-4.88-.37-7.29-1.11-17.51-8.53-30.07-14.2-38.66-12.58-19.06-34.55-31.92-57.92-33.83a69.45,69.45,0,0,0-14.58,0,81.29,81.29,0,0,0-28.78,8.14,120.16,120.16,0,0,0-13.7,8.66C11.46,293.2,0,316.76,0,342.33a80.2,80.2,0,0,0,43.72,71.31v30.71a21.89,21.89,0,0,0,21.87,21.86H94.74a21.89,21.89,0,0,0,21.86-21.86V414.6Z"/><path class="cls-1" d="M277.74,296.89h0a8,8,0,0,1-8-8V152a8,8,0,0,1,8-8h0a8,8,0,0,1,8,8V288.9A8,8,0,0,1,277.74,296.89Z"/><path class="cls-1" d="M231.81,296.79h0a8,8,0,0,1-8-8V177a8,8,0,0,1,8-8h0a8,8,0,0,1,8,8V288.81A8,8,0,0,1,231.81,296.79Z"/><path class="cls-1" d="M186.87,296.79h0a8,8,0,0,1-8-8V201a8,8,0,0,1,8-8h0a8,8,0,0,1,8,8v87.83A8,8,0,0,1,186.87,296.79Z"/><path class="cls-1" d="M324.74,296.89h0a8,8,0,0,1-8-8V125a8,8,0,0,1,8-8h0a8,8,0,0,1,8,8V288.9A8,8,0,0,1,324.74,296.89Z"/><path class="cls-1" d="M346.55,429.93c-40.24,20.15-88.07,27.39-138.06,16.28-30.69-6.82-61.37-24.45-87.25-48l-14.5,9.43a218.68,218.68,0,0,0,70.13,43.78s28.58,14.51,78.33,14.51c50.25,0,78.54-14.51,78.54-14.51a217.59,217.59,0,0,0,22.89-10.37Z"/><path class="cls-1" d="M218,46.78a11,11,0,0,0,2.28,1.88L267,77.44a10.71,10.71,0,0,0,11.9-.37A11,11,0,0,0,283.48,68V45.31c99.35,13.72,175.86,99,175.86,202.08a203.24,203.24,0,0,1-17.75,83.32l11.2,10.39a217.69,217.69,0,0,0,21.06-93.71c0-111.15-83-202.89-190.37-216.71V10.94A10.92,10.92,0,0,0,272.7,0h0a10.83,10.83,0,0,0-5.6,1.68L254.12,9.57,220.36,30.25A10.44,10.44,0,0,0,218.17,32c-103,17.63-181.4,107.34-181.4,215.38a220.66,220.66,0,0,0,3,36l13.55-7.11C37.83,163.85,114.13,66,218,46.78Zm13.83-10.11,24.72-14.74,9.47-5.62a3.62,3.62,0,0,1,1.76-.55,3.46,3.46,0,0,1,3.4,3.4V60a3.26,3.26,0,0,1-1.74,2.89,3.44,3.44,0,0,1-3.43-.07L231.86,42.3a3.25,3.25,0,0,1,0-5.63Z"/></g></g></svg>