<svg xmlns="http://www.w3.org/2000/svg" viewBox="0 0 511.65 512"><defs><style>.cls-1{fill:#fff;}</style></defs><title>Asset 2</title><g id="Layer_2" data-name="Layer 2"><g id="Layer_1-2" data-name="Layer 1"><path class="cls-1" d="M469,0H42.64A42.69,42.69,0,0,0,0,42.64V489.37A22.78,22.78,0,0,0,22.9,512H469a42.69,42.69,0,0,0,42.64-42.65V42.64A42.69,42.69,0,0,0,469,0ZM257.82,475.18a19.93,19.93,0,0,1-18.5,19.75H42.64a25.58,25.58,0,0,1-25.58-25.58V272.66a20,20,0,0,1,20-18.48H237.75A20,20,0,0,1,257.82,274ZM494.59,212.72V469.35A25.58,25.58,0,0,1,469,494.93H274.11a22.18,22.18,0,0,0,.7-5.56V259.81a22.27,22.27,0,0,0-.9-6.25L392.26,135.22l17.84,17.84a12.65,12.65,0,0,0,21.24-6l14.82-62.49a12.64,12.64,0,0,0-15.27-15.21L385.83,80.19l-17.24,4.18a12.61,12.61,0,0,0-6,3.24l0,0a12.78,12.78,0,0,0,.13,18l17.59,17.59-117,117a22.94,22.94,0,0,0-11.36-3H22.9a22.91,22.91,0,0,0-5.84.75V212.72L17,39.84c0-7,4.75-13.65,10.94-18.05a25.53,25.53,0,0,1,14.71-4.73H469c10.79.06,25.65,7.79,25.65,22.78Zm-115-110.44a3.89,3.89,0,0,1,1.92-6.63L394,92.47l32.66-8.27a3.81,3.81,0,0,1,4.67,4.65L420,134.14a4,4,0,0,1-2.78,2.89,3.82,3.82,0,0,1-3.83-.94Z"/><path class="cls-1" d="M178.54,324.35H95.27a8.3,8.3,0,0,0-8.33,8.23v83.48a8.28,8.28,0,0,0,8.33,8.22h83.27a8.29,8.29,0,0,0,8.33-8.23V332.58A8.29,8.29,0,0,0,178.54,324.35Zm-8.66,77.52a5.47,5.47,0,0,1-5.49,5.43h-55a5.48,5.48,0,0,1-5.5-5.43v-55.1a5.47,5.47,0,0,1,5.5-5.43h55a5.47,5.47,0,0,1,5.49,5.43Z"/></g></g></svg>