<svg xmlns="http://www.w3.org/2000/svg" viewBox="0 0 482.13 512"><defs><style>.cls-1{fill:#fff;}</style></defs><title>Asset 5</title><g id="Layer_2" data-name="Layer 2"><g id="Layer_1-2" data-name="Layer 1"><path class="cls-1" d="M227.22,76.3h.05a10.39,10.39,0,0,0,5.4-1.63l12.49-7.61,32.57-20a10.42,10.42,0,0,0,0-17.77L232.71,1.57a10.41,10.41,0,0,0-15.88,8.87v55.3A10.53,10.53,0,0,0,227.22,76.3Zm1.44-57.9a3.15,3.15,0,0,1,1.67-2.79,3.32,3.32,0,0,1,3.31.07l33,19.8a3.13,3.13,0,0,1,0,5.43L242.77,55.13l-9.14,5.42a3.19,3.19,0,0,1-5-2.74Z"/><path class="cls-1" d="M474.13,270.86a8,8,0,0,0-8,7.69c-4.05,120.63-103,217.2-224.55,217.44C117.48,496.23,16,395,16,270.86,16,154.75,103.93,59.16,216.83,47V30.94C95.16,43.12.15,145.74,0,270.57-.16,403.54,108.17,512,241.14,512c130.38,0,236.6-103.49,241-232.81A8,8,0,0,0,474.13,270.86Z"/><path class="cls-1" d="M99.84,270.86a141.3,141.3,0,1,0,141.3-141.29A141.3,141.3,0,0,0,99.84,270.86Zm266.57,0A125.28,125.28,0,1,1,241.14,145.59,125.28,125.28,0,0,1,366.41,270.86Z"/><path class="cls-1" d="M236,194.63a6.82,6.82,0,0,0-6.82,6.82V261.5a16.48,16.48,0,1,0,21.94,21.67h28.7a6.82,6.82,0,0,0,0-13.64H251a16.52,16.52,0,0,0-8.19-8.1v-60A6.82,6.82,0,0,0,236,194.63Z"/></g></g></svg>