<svg xmlns="http://www.w3.org/2000/svg" xmlns:xlink="http://www.w3.org/1999/xlink" viewBox="0 0 512 512"><defs><style>.cls-1{fill:url(#linear-gradient);}</style><linearGradient id="linear-gradient" x1="256" y1="16.21" x2="256" y2="496.47" gradientUnits="userSpaceOnUse"><stop offset="0" stop-color="#4498f9"/><stop offset="0.72" stop-color="#235fa4"/></linearGradient></defs><title>Asset 71</title><g id="Layer_2" data-name="Layer 2"><g id="Layer_1-2" data-name="Layer 1"><path class="cls-1" d="M256,0C114.62,0,0,114.61,0,256S114.62,512,256,512,512,397.38,512,256,397.38,0,256,0Zm44,332.86c8.24,6.94,15.9,21.14,15.9,42.82,0,23.89-.18,44.15-.26,55.62a7.82,7.82,0,0,1-7.81,7.77l-100.52.14a7.82,7.82,0,0,1-7.83-7.76c-.07-7.38-.18-18.37-.25-31.59-65.52,14-79.33-31.05-79.33-31.05C109.14,342.1,93.65,335,93.65,335,72.32,320.61,95.3,320.9,95.3,320.9c23.65,1.61,36.08,23.85,36.08,23.85,21,35.39,55.13,25.16,68.6,19.26,2.12-15,8.18-25.17,14.91-31-52.3-5.79-107.28-25.69-107.28-114.37,0-25.26,9.13-45.91,24.24-62.1-2.65-5.85-10.6-29.38,2.06-61.26,0,0,19.73-6.2,64.77,23.73a225.89,225.89,0,0,1,117.77,0c44.75-29.93,64.47-23.73,64.47-23.73,12.66,31.88,4.71,55.41,2.36,61.26,15,16.19,24.14,36.84,24.14,62.1C407.42,307.6,352.36,327.16,300,332.86Z"/></g></g></svg>