<svg xmlns="http://www.w3.org/2000/svg" viewBox="0 0 209.55 187.73"><defs><style>.cls-1{fill:#d3d3d3;}</style></defs><title>Asset 2</title><g id="Layer_2" data-name="Layer 2"><g id="Layer_1-2" data-name="Layer 1"><path class="cls-1" d="M209.55,27.3V3.3A3.28,3.28,0,0,0,206.29,0H115.2a3.44,3.44,0,0,0-3.4,3.44v.27h0V78.39A2.57,2.57,0,0,0,114.33,81h1.21a28,28,0,0,0,26.8-28V30.57h33.3a3.42,3.42,0,0,1,3.24,2.78,2.76,2.76,0,0,1,.06.57h0v74.69l-.06.13v.08a2.13,2.13,0,0,1-.15.49.85.85,0,0,1-.09.22,3,3,0,0,1-.44.72v.07L147.5,141h0l-32.42,32.5h0l-.44.44-.46.46a3.28,3.28,0,0,0-.72,1.53,3,3,0,0,0-.07.66,3.11,3.11,0,0,0,0,.61,3.53,3.53,0,0,0,.74,1.59l.2.22.09.11-.07-.06.22.24.09.1c.44.46.94,1,1.44,1.46a25.42,25.42,0,0,0,35.29-.51l.16-.16,56.89-56.92c.09-.08.18-.18.27-.27a3.06,3.06,0,0,0,.53-.84.85.85,0,0,0,.09-.22,2.13,2.13,0,0,0,.15-.49,4.39,4.39,0,0,0,.07-.72V27.29Z"/><path class="cls-1" d="M94.34,187.73a3.44,3.44,0,0,0,3.4-3.48v0h0V109.39a2.57,2.57,0,0,0-2.56-2.57H94a28,28,0,0,0-26.79,27.91v22.45H33.89a3.42,3.42,0,0,1-3.24-2.78,2.76,2.76,0,0,1-.06-.57h0V79.14l.06-.13v-.08a2.13,2.13,0,0,1,.15-.49.85.85,0,0,1,.09-.22,3,3,0,0,1,.44-.72v-.07l30.72-30.7h0L94.46,14.22h0l.44-.44.46-.46a3.28,3.28,0,0,0,.72-1.53,3,3,0,0,0,.07-.66,3.11,3.11,0,0,0,0-.61,3.53,3.53,0,0,0-.74-1.59l-.22-.24h0l-.08-.09.09.07a22.85,22.85,0,0,0-1.75-1.8,25.42,25.42,0,0,0-35.29.51L58,7.54,1.11,64.44l-.27.27a3.06,3.06,0,0,0-.53.84.85.85,0,0,0-.09.22,2.13,2.13,0,0,0-.15.49A4.53,4.53,0,0,0,0,67V184.45a3.28,3.28,0,0,0,3.28,3.28Z"/></g></g></svg>