<svg xmlns="http://www.w3.org/2000/svg" viewBox="0 0 677.18 187.73"><defs><style>.cls-1{fill:#d3d3d3;}</style></defs><title>Asset 1</title><g id="Layer_2" data-name="Layer 2"><g id="Layer_1-2" data-name="Layer 1"><path class="cls-1" d="M209.55,27.3V3.3A3.28,3.28,0,0,0,206.29,0H115.2a3.44,3.44,0,0,0-3.4,3.44v.27h0V78.39A2.57,2.57,0,0,0,114.33,81h1.21a28,28,0,0,0,26.8-28V30.57h33.3a3.42,3.42,0,0,1,3.24,2.78,2.76,2.76,0,0,1,.06.57h0v74.69l-.06.13v.08a2.13,2.13,0,0,1-.15.49.85.85,0,0,1-.09.22,3,3,0,0,1-.44.72v.07L147.5,141h0l-32.42,32.5h0l-.44.44-.46.46a3.28,3.28,0,0,0-.72,1.53,3,3,0,0,0-.07.66,3.11,3.11,0,0,0,0,.61,3.53,3.53,0,0,0,.74,1.59l.2.22.09.11-.07-.06.22.24.09.1c.44.46.94,1,1.44,1.46a25.42,25.42,0,0,0,35.29-.51l.16-.16,56.89-56.92c.09-.08.18-.18.27-.27a3.06,3.06,0,0,0,.53-.84.85.85,0,0,0,.09-.22,2.13,2.13,0,0,0,.15-.49,4.39,4.39,0,0,0,.07-.72V27.29Z"/><path class="cls-1" d="M94.34,187.73a3.44,3.44,0,0,0,3.4-3.48v0h0V109.39a2.57,2.57,0,0,0-2.56-2.57H94a28,28,0,0,0-26.79,27.91v22.45H33.89a3.42,3.42,0,0,1-3.24-2.78,2.76,2.76,0,0,1-.06-.57h0V79.14l.06-.13v-.08a2.13,2.13,0,0,1,.15-.49.85.85,0,0,1,.09-.22,3,3,0,0,1,.44-.72v-.07l30.72-30.7h0L94.46,14.22h0l.44-.44.46-.46a3.28,3.28,0,0,0,.72-1.53,3,3,0,0,0,.07-.66,3.11,3.11,0,0,0,0-.61,3.53,3.53,0,0,0-.74-1.59l-.22-.24h0l-.08-.09.09.07a22.85,22.85,0,0,0-1.75-1.8,25.42,25.42,0,0,0-35.29.51L58,7.54,1.11,64.44l-.27.27a3.06,3.06,0,0,0-.53.84.85.85,0,0,0-.09.22,2.13,2.13,0,0,0-.15.49A4.53,4.53,0,0,0,0,67V184.45a3.28,3.28,0,0,0,3.28,3.28Z"/><path class="cls-1" d="M330.44,85.91a36.72,36.72,0,0,1-4.78.82,46.94,46.94,0,0,1-6.27.41,26.23,26.23,0,0,1-5.59-.54,9.1,9.1,0,0,1-4-1.64,7.35,7.35,0,0,1-2.45-3.41,16.41,16.41,0,0,1-.82-5.73V54.54H280.38V85.91a36.57,36.57,0,0,1-4.77.82,47.08,47.08,0,0,1-6.28.41,26.23,26.23,0,0,1-5.59-.54,9.18,9.18,0,0,1-3.95-1.6,7.5,7.5,0,0,1-2.46-3.41,16.89,16.89,0,0,1-.82-5.73v-72c1-.19,2.59-.41,4.78-.69a38.74,38.74,0,0,1,6.27-.54,23.86,23.86,0,0,1,5.46.54,9.21,9.21,0,0,1,4.09,1.64,7.35,7.35,0,0,1,2.45,3.41,16.65,16.65,0,0,1,.82,5.73V35.72h26.19V3.81c1-.19,2.59-.41,4.77-.69a39,39,0,0,1,6.28-.54,23.78,23.78,0,0,1,5.45.54,9.21,9.21,0,0,1,4.09,1.64,7.37,7.37,0,0,1,2.46,3.41,16.65,16.65,0,0,1,.82,5.73Z"/><path class="cls-1" d="M394.25,85.91a36.18,36.18,0,0,1-4.63.82,46.79,46.79,0,0,1-6.14.41q-6.27,0-9.41-2t-3.14-9V57.68q-3.4-5-7.37-11.18T355.79,34q-3.8-6.45-7.09-12.6a120.25,120.25,0,0,1-5.32-11.46,19.08,19.08,0,0,1,4.77-4.5,13.7,13.7,0,0,1,7.64-2,15.16,15.16,0,0,1,8.59,2.18q3.42,2.17,6.41,8.18l11.32,22.78h.82c1.28-2.82,2.37-5.36,3.28-7.64s2-4.68,2.86-7,1.86-4.78,2.86-7.23S394.07,9.3,395.34,6a23.44,23.44,0,0,1,5.46-1.91,25.72,25.72,0,0,1,5.73-.68A12.56,12.56,0,0,1,414.58,6Q418,8.45,418,13.49a14.29,14.29,0,0,1-.69,4,45.73,45.73,0,0,1-3.13,7.09q-2.46,4.64-7.23,12.68t-12.69,21Z"/><path class="cls-1" d="M504.81,73q0,4.23-1.5,6.27a15.62,15.62,0,0,1-4.78,4,36,36,0,0,1-4.77,2.18A54.13,54.13,0,0,1,487.49,87a57.13,57.13,0,0,1-7.23,1.22,64.89,64.89,0,0,1-7.37.41A63.39,63.39,0,0,1,454.48,86a44,44,0,0,1-15-8,39.17,39.17,0,0,1-10-13.5,44.43,44.43,0,0,1-3.68-18.68,45.06,45.06,0,0,1,4-19.51,41.39,41.39,0,0,1,10.64-13.77,44.7,44.7,0,0,1,15.14-8.32,58.08,58.08,0,0,1,17.6-2.73q12.94,0,20.45,4.23t7.64,10.77a10.63,10.63,0,0,1-1.77,6.14,14.75,14.75,0,0,1-4.09,4.09,52.37,52.37,0,0,0-8.59-4,30.34,30.34,0,0,0-11.46-2q-11.46,0-18.28,6.55T450.4,45.45a30.49,30.49,0,0,0,1.77,10.91,22.22,22.22,0,0,0,5,7.5,21.65,21.65,0,0,0,7.23,4.36,27.24,27.24,0,0,0,8.73,1.37,23.22,23.22,0,0,0,5.32-.55A13.93,13.93,0,0,0,482,67.77V55H467.44a24.89,24.89,0,0,1-1.64-4,19.29,19.29,0,0,1-.68-5.18c0-3.28.73-5.64,2.18-7.1a8.25,8.25,0,0,1,5.87-2.18h23.05a8,8,0,0,1,8.59,7.36,8.42,8.42,0,0,1,0,1.23Z"/><path class="cls-1" d="M598.11,73q0,4.23-1.5,6.27a15.58,15.58,0,0,1-4.77,4,36.74,36.74,0,0,1-4.78,2.18A54.13,54.13,0,0,1,580.79,87a57.13,57.13,0,0,1-7.23,1.22,64.89,64.89,0,0,1-7.37.41A63.39,63.39,0,0,1,547.78,86a44,44,0,0,1-15-8,39.27,39.27,0,0,1-10-13.5,44.58,44.58,0,0,1-3.68-18.68,45.06,45.06,0,0,1,4-19.51,41.39,41.39,0,0,1,10.64-13.77,44.7,44.7,0,0,1,15.14-8.32,58.08,58.08,0,0,1,17.6-2.73q13,0,20.46,4.23t7.63,10.77a10.63,10.63,0,0,1-1.77,6.14,14.75,14.75,0,0,1-4.09,4.09,52.37,52.37,0,0,0-8.59-4,30.34,30.34,0,0,0-11.46-2q-11.46,0-18.28,6.55T543.7,45.45a30.49,30.49,0,0,0,1.77,10.91,22.32,22.32,0,0,0,5,7.5,21.65,21.65,0,0,0,7.23,4.36,27.24,27.24,0,0,0,8.73,1.37,23.22,23.22,0,0,0,5.32-.55,13.9,13.9,0,0,0,3.54-1.23V55H560.74a24.89,24.89,0,0,1-1.64-4,19.29,19.29,0,0,1-.68-5.18c0-3.28.73-5.64,2.18-7.1a8.25,8.25,0,0,1,5.87-2.18h23a8,8,0,0,1,8.59,7.36,8.42,8.42,0,0,1,0,1.23Z"/><path class="cls-1" d="M616.53,16.49q0-5.86,3.41-9.27t9.28-3.41h45a14.39,14.39,0,0,1,1.63,4,16.27,16.27,0,0,1,.82,5.18c0,3.46-.77,5.91-2.32,7.37a7.91,7.91,0,0,1-5.86,2.18H639.72V35.18h30.69a15.3,15.3,0,0,1,1.63,4,15.19,15.19,0,0,1,.82,5c0,3.45-.73,5.91-2.18,7.36a7.9,7.9,0,0,1-5.87,2.19H639.72V68.05h35a14.86,14.86,0,0,1,1.64,4,16.33,16.33,0,0,1,.82,5.19c0,3.45-.78,6-2.32,7.5A8,8,0,0,1,669,86.87H629.22q-5.87,0-9.28-3.41t-3.41-9.28Z"/><path class="cls-1" d="M273.41,161.74c-2.51-.93-4.8-1.85-6.86-2.78a21.76,21.76,0,0,1-5.32-3.52,15.06,15.06,0,0,1-3.52-4.81,18.15,18.15,0,0,1-1.2-6.95,15.71,15.71,0,0,1,5.58-12.6q5.66-4.73,15.78-4.72a38.49,38.49,0,0,1,6.86.56,17.77,17.77,0,0,1,5.41,1.75,9.11,9.11,0,0,1,3.6,3,6.85,6.85,0,0,1,1.29,4.17,8.06,8.06,0,0,1-1,4.16,11.83,11.83,0,0,1-2.49,2.88,17.75,17.75,0,0,0-5.06-2.23,22.76,22.76,0,0,0-7-1c-2.57,0-4.46.41-5.66,1.21a3.32,3.32,0,0,0-1.8,2.87,2.92,2.92,0,0,0,1.11,2.32,12.21,12.21,0,0,0,3.35,1.57l4.55,1.57q8.06,2.79,12.35,7.14T297.77,168A16,16,0,0,1,292,180.73q-5.76,4.82-16.9,4.81a34.55,34.55,0,0,1-7.38-.74,23,23,0,0,1-5.92-1.94,12.34,12.34,0,0,1-3.95-3.34,8.11,8.11,0,0,1-1.37-4.63,7.13,7.13,0,0,1,1.46-4.54,11.19,11.19,0,0,1,3.17-3,23.3,23.3,0,0,0,5.84,3.52,19.39,19.39,0,0,0,7.63,1.48c2.8,0,4.78-.46,5.92-1.39a4,4,0,0,0,1.72-3.24,3.15,3.15,0,0,0-1.38-2.78A15.4,15.4,0,0,0,277,163Z"/><path class="cls-1" d="M303.57,153.53a35.32,35.32,0,0,1,2-12.31,26.06,26.06,0,0,1,5.53-8.92,23.46,23.46,0,0,1,8.26-5.53,28.07,28.07,0,0,1,10.33-1.87,27.37,27.37,0,0,1,10.24,1.87,23.41,23.41,0,0,1,8.34,5.53,24.47,24.47,0,0,1,5.53,8.92,34,34,0,0,1,2.07,12.31,36,36,0,0,1-2,12.39,25.26,25.26,0,0,1-5.54,9,23,23,0,0,1-8.26,5.44,29.92,29.92,0,0,1-20.81,0,23.6,23.6,0,0,1-8.26-5.62,26.13,26.13,0,0,1-5.45-9A35,35,0,0,1,303.57,153.53Zm14.86,0q0,8.11,3.06,12.12a10.41,10.41,0,0,0,14.61,1.83h0a10.56,10.56,0,0,0,1.83-1.83q3-4,3.05-12.12t-3.05-12a9.63,9.63,0,0,0-8.18-4,10,10,0,0,0-8.26,4Q318.43,145.4,318.43,153.53Z"/><path class="cls-1" d="M401,126.59a10.69,10.69,0,0,1,1,2.68,11.44,11.44,0,0,1,.49,3.39c0,2.32-.46,4-1.4,5a4.71,4.71,0,0,1-3.63,1.43h-17.4v10.08h18.09a8.34,8.34,0,0,1,1.07,2.58,11.45,11.45,0,0,1,.5,3.39q0,3.39-1.41,4.91a4.7,4.7,0,0,1-3.63,1.42H380.23v18.82a20.29,20.29,0,0,1-2.9.54,28.28,28.28,0,0,1-3.79.26,14.84,14.84,0,0,1-3.39-.35,5.33,5.33,0,0,1-2.4-1.07,4.82,4.82,0,0,1-1.48-2.23,11.59,11.59,0,0,1-.5-3.75v-38.8a8.58,8.58,0,0,1,2.07-6.07,7.3,7.3,0,0,1,5.61-2.23Z"/><path class="cls-1" d="M410.12,139.08a12.4,12.4,0,0,1-1.07-2.68,12.65,12.65,0,0,1-.5-3.56q0-3.48,1.4-5a5.1,5.1,0,0,1,3.8-1.51h36a12.12,12.12,0,0,1,1.07,2.67,12.66,12.66,0,0,1,.49,3.57q0,3.48-1.48,5a4.83,4.83,0,0,1-3.72,1.52H437v41.2a20.16,20.16,0,0,1-2.89.54,28.43,28.43,0,0,1-3.8.26,15.34,15.34,0,0,1-3.38-.35,5.33,5.33,0,0,1-2.4-1.07,4.84,4.84,0,0,1-1.49-2.23,11.9,11.9,0,0,1-.49-3.75v-34.6Z"/><path class="cls-1" d="M484.32,139.79a18.67,18.67,0,0,1,2.8-1,13.21,13.21,0,0,1,4-.62,12.79,12.79,0,0,1,5.78,1.16,4.65,4.65,0,0,1,2.81,3.21c.6,2.43,1.16,4.72,1.65,6.86s1.07,4.11,1.57,6.07,1,3.8,1.4,5.71,1,3.89,1.41,6h.41c.5-3.63.94-7.07,1.32-10.34s.75-6.57,1.08-9.72.66-6.37,1-9.46.66-6.33,1-9.54a12.32,12.32,0,0,1,6.52-1.87,9.59,9.59,0,0,1,5.29,1.42,5.32,5.32,0,0,1,2.23,4.82,55.46,55.46,0,0,1-.41,5.62q-.33,3.57-1,8c-.45,2.95-.92,6.08-1.41,9.37s-1.13,6.39-1.73,9.36-1.25,5.69-1.94,8.16a41.23,41.23,0,0,1-1.74,5.53,9.37,9.37,0,0,1-4,2.05,21.35,21.35,0,0,1-5.79.8,18.07,18.07,0,0,1-6.6-1.07,5.16,5.16,0,0,1-3.22-3.21q-1.08-3.57-2.32-8.47t-2.64-10.79q-1.16,5.79-2.4,11.32c-.82,3.69-1.57,6.81-2.23,9.37a9.17,9.17,0,0,1-3.71,2.05,17.64,17.64,0,0,1-5.45.8,20.56,20.56,0,0,1-6.78-1.07,6.52,6.52,0,0,1-3.88-3.21,36.29,36.29,0,0,1-1.65-4.73q-.82-3.21-1.74-7.22c-.61-2.67-1.26-5.63-1.95-8.86s-1.19-6.3-1.74-9.45-1-6.22-1.4-9.19-.77-5.79-1-8.29a11.24,11.24,0,0,1,3.22-2.14,10.13,10.13,0,0,1,4.46-1,8.21,8.21,0,0,1,5.12,1.51,6.8,6.8,0,0,1,2.56,4.91q1.32,9.09,2.15,15.16t1.4,10c.39,2.55.66,4.54.83,6s.33,2.56.49,3.39h.41q.75-3.57,1.41-6.6l1.32-6.06q.75-3.12,1.49-6.6C483.21,145.61,483.77,142.82,484.32,139.79Z"/><path class="cls-1" d="M543.59,128.2a16.87,16.87,0,0,1,4.21-1.69,21.34,21.34,0,0,1,5.78-.81,18.47,18.47,0,0,1,7.27,1.34,6.43,6.43,0,0,1,4.13,4q1.49,4.64,3.22,10.79t3.47,12.76q1.74,6.51,3.39,12.93T578,178.76a6.45,6.45,0,0,1-3,2,12.83,12.83,0,0,1-4.71.8,13.81,13.81,0,0,1-3.39-.36,6.14,6.14,0,0,1-2.23-1.07,5.85,5.85,0,0,1-1.4-1.87,19.67,19.67,0,0,1-.91-2.68l-1.49-6.15h-15c-.44,1.78-.88,3.63-1.32,5.53s-.88,3.74-1.32,5.53a15.26,15.26,0,0,1-2.48.71,10.86,10.86,0,0,1-3,.36c-2.81,0-4.91-.51-6.28-1.52a5.33,5.33,0,0,1-2-4.37,9.51,9.51,0,0,1,.33-2.49c.22-.84.46-1.82.74-3,.39-1.6.92-3.6,1.57-6s1.49-4.94,2.31-7.67,1.71-5.65,2.64-8.56,1.82-5.65,2.65-8.21,1.57-4.93,2.23-7S543.2,129.27,543.59,128.2Zm9.91,11.5c-.77,2.5-1.65,5.29-2.64,8.39s-1.79,6.12-2.56,9.27h10.24q-1.15-4.81-2.4-9.36c-.83-3-1.55-5.8-2.14-8.3Z"/><path class="cls-1" d="M600.74,163.16v17.12a20.16,20.16,0,0,1-2.89.54,28.43,28.43,0,0,1-3.8.26,15.34,15.34,0,0,1-3.38-.35,5.33,5.33,0,0,1-2.4-1.07,5.23,5.23,0,0,1-1.4-2.23,11.59,11.59,0,0,1-.5-3.75v-42a4.07,4.07,0,0,1,.91-2.86,6.84,6.84,0,0,1,2.64-1.69,27.68,27.68,0,0,1,6.53-1.52,56.9,56.9,0,0,1,7.93-.53q11.4,0,17.18,5.17t5.78,14a16.46,16.46,0,0,1-2.64,9.45,19.68,19.68,0,0,1-6.28,6.07q3,4.36,5.86,8.2a52.7,52.7,0,0,1,4.54,7,8.45,8.45,0,0,1-3.05,4.81,7.92,7.92,0,0,1-4.87,1.61,9.86,9.86,0,0,1-3.14-.45,7.32,7.32,0,0,1-2.32-1.24,9.84,9.84,0,0,1-1.81-2,24.8,24.8,0,0,1-1.57-2.49l-6.94-12ZM606,151.3a7,7,0,0,0,4.7-12c-1.33-1.19-3.45-1.78-6.36-1.79a16.64,16.64,0,0,0-2,.09q-.74.09-1.65.27V151.3Z"/><path class="cls-1" d="M638.35,134.89a8.58,8.58,0,0,1,2.07-6.07,7.31,7.31,0,0,1,5.62-2.23h27.25a9.93,9.93,0,0,1,1,2.59,11.45,11.45,0,0,1,.5,3.39q0,3.39-1.41,4.81a4.56,4.56,0,0,1-3.55,1.43H652.4v8.3H671a9.66,9.66,0,0,1,1,2.58,10.57,10.57,0,0,1,.5,3.3q0,3.39-1.33,4.82a4.6,4.6,0,0,1-3.55,1.42H652.4v9.37h21.22a9.66,9.66,0,0,1,1,2.58,11.45,11.45,0,0,1,.5,3.39q0,3.39-1.4,4.91a4.62,4.62,0,0,1-3.56,1.42H646a7.27,7.27,0,0,1-5.62-2.23,8.54,8.54,0,0,1-2.07-6.06Z"/></g></g></svg>