<svg xmlns="http://www.w3.org/2000/svg" viewBox="0 0 512 512"><defs><style>.cls-1{fill:#fff;}</style></defs><title>Asset 3</title><g id="Layer_2" data-name="Layer 2"><g id="Layer_1-2" data-name="Layer 1"><path class="cls-1" d="M90.05,396a41.72,41.72,0,0,0-20.17,5.15A236.45,236.45,0,0,1,20,256C20,125.87,125.87,20,256,20a237.47,237.47,0,0,1,47,4.68,10,10,0,0,0,4-19.61A258.44,258.44,0,0,0,256,0,256,256,0,0,0,55.09,414.65a42,42,0,1,0,35-18.7Zm15.56,57.55A22,22,0,1,1,112.05,438,21.85,21.85,0,0,1,105.61,453.5Z"/><path class="cls-1" d="M456.9,97.34a41.93,41.93,0,1,0-14.78,13.56A236.47,236.47,0,0,1,492,256c0,130.13-105.87,236-236,236a237.49,237.49,0,0,1-46.55-4.59A10,10,0,1,0,205.52,507,258.24,258.24,0,0,0,256,512,256,256,0,0,0,456.9,97.34Zm-50.51-7.73A22,22,0,1,1,422,96.05,21.88,21.88,0,0,1,406.39,89.61Z"/><path class="cls-1" d="M348.08,37.82A10,10,0,1,0,341,34.89,10.08,10.08,0,0,0,348.08,37.82Z"/><path class="cls-1" d="M164.36,474.36a10,10,0,1,0,7.07,2.93A10.08,10.08,0,0,0,164.36,474.36Z"/><path class="cls-1" d="M426.72,174l-14.54-3.63c-.28-.73-.58-1.45-.88-2.17l7.7-12.84a7.34,7.34,0,0,0-1.1-9L395,123.48a7.31,7.31,0,0,0-9-1.1l-12.84,7.7c-.72-.3-1.44-.6-2.17-.88l-3.63-14.54a7.34,7.34,0,0,0-7.13-5.56H328a7.34,7.34,0,0,0-7.12,5.56l-3.64,14.54c-.72.28-1.45.58-2.16.88l-12.84-7.7a7.38,7.38,0,0,0-9,1.1l-22.85,22.86a7.34,7.34,0,0,0-1.1,9l7.7,12.84c-.3.72-.6,1.44-.88,2.17L261.57,174a7.36,7.36,0,0,0-5.57,7.13V213.4a7.35,7.35,0,0,0,5.57,7.12l14.54,3.64c.28.73.57,1.45.88,2.17l-7.7,12.84a6.58,6.58,0,0,0-.41,1.92c-.06-.06-.05-.16-.11-.22l-27-27a7.34,7.34,0,0,0-9-1.1l-12.66,7.6c-2.54-1.2-5.14-2.28-7.77-3.23l-3.58-14.32a7.34,7.34,0,0,0-7.13-5.56H163.45a7.34,7.34,0,0,0-7.12,5.56l-3.58,14.32c-2.63.95-5.23,2-7.77,3.23l-12.66-7.6a7.35,7.35,0,0,0-9,1.1l-27,27a7.35,7.35,0,0,0-1.11,9l7.61,12.66c-1.21,2.55-2.28,5.14-3.23,7.77l-14.32,3.58A7.36,7.36,0,0,0,79.71,281v38.19a7.35,7.35,0,0,0,5.56,7.12l14.33,3.59c1,2.62,2,5.22,3.23,7.76L95.22,350.3a7.36,7.36,0,0,0,1.11,9l27,27a7.38,7.38,0,0,0,9,1.11L145,379.79c2.55,1.21,5.15,2.28,7.77,3.23l3.59,14.33a7.34,7.34,0,0,0,7.12,5.55h38.19a7.33,7.33,0,0,0,7.12-5.55L212.35,383c2.63-.95,5.22-2,7.77-3.23l12.66,7.61a7.37,7.37,0,0,0,9-1.11l27-27a7.35,7.35,0,0,0,1.1-9l-7.6-12.66c1.2-2.54,2.28-5.14,3.23-7.76l14.32-3.59a7.35,7.35,0,0,0,5.56-7.12V281a7.36,7.36,0,0,0-5.56-7.13l-14.32-3.58q-1.42-3.94-3.23-7.77l7.6-12.66a6.65,6.65,0,0,0,.41-1.92c.06.06.05.16.11.22L293.24,271a7.38,7.38,0,0,0,9,1.11l12.84-7.71c.71.31,1.43.61,2.16.89l3.64,14.54a7.34,7.34,0,0,0,7.12,5.56H360.3a7.34,7.34,0,0,0,7.13-5.56l3.63-14.54c.74-.28,1.45-.58,2.17-.89l12.84,7.71a7.36,7.36,0,0,0,9-1.11l22.86-22.85a7.34,7.34,0,0,0,1.1-9l-7.7-12.84c.31-.72.6-1.44.88-2.17l14.54-3.64a7.35,7.35,0,0,0,5.57-7.12V181.08A7.36,7.36,0,0,0,426.72,174Zm-156,112.76v26.73L258,316.61a7.33,7.33,0,0,0-5.23,5,74.06,74.06,0,0,1-5.38,12.93,7.34,7.34,0,0,0,.18,7.23L254.32,353l-18.9,18.9-11.2-6.73a7.32,7.32,0,0,0-7.23-.19,72.34,72.34,0,0,1-12.94,5.38,7.34,7.34,0,0,0-5,5.24l-3.17,12.67H169.18L166,375.55a7.32,7.32,0,0,0-5-5.24,72.56,72.56,0,0,1-12.93-5.38,7.31,7.31,0,0,0-7.23.19l-11.2,6.73-18.91-18.91,6.73-11.2a7.34,7.34,0,0,0,.19-7.23,72.56,72.56,0,0,1-5.38-12.93,7.32,7.32,0,0,0-5.24-5L94.4,313.44V286.71l12.67-3.17a7.34,7.34,0,0,0,5.24-5,72.34,72.34,0,0,1,5.38-12.94,7.34,7.34,0,0,0-.19-7.23l-6.73-11.2,18.91-18.9,11.2,6.73a7.39,7.39,0,0,0,7.23.18A74.06,74.06,0,0,1,161,229.83a7.33,7.33,0,0,0,5-5.23l3.17-12.67h26.73l3.17,12.67a7.34,7.34,0,0,0,5,5.23A73.84,73.84,0,0,1,217,235.21a7.39,7.39,0,0,0,7.23-.18l11.2-6.73,18.9,18.9-6.73,11.2a7.36,7.36,0,0,0-.18,7.23,73.84,73.84,0,0,1,5.38,12.94,7.34,7.34,0,0,0,5.23,5Zm146.91-79-12.77,3.2a7.32,7.32,0,0,0-5.19,4.8,55.26,55.26,0,0,1-3.2,7.78,7.37,7.37,0,0,0,.25,7.1l6.77,11.27-14.75,14.74-11.26-6.76a7.35,7.35,0,0,0-7.1-.26,57.17,57.17,0,0,1-7.79,3.21,7.29,7.29,0,0,0-4.79,5.18l-3.2,12.77H333.72l-3.2-12.77a7.3,7.3,0,0,0-4.8-5.18,57,57,0,0,1-7.78-3.21,7.43,7.43,0,0,0-7.1.26l-11.26,6.76-14.75-14.74,6.76-11.27a7.35,7.35,0,0,0,.26-7.1,56.52,56.52,0,0,1-3.21-7.78,7.29,7.29,0,0,0-5.18-4.8l-12.77-3.2V186.82l12.77-3.2a7.33,7.33,0,0,0,5.19-4.81,59.21,59.21,0,0,1,3.2-7.79,7.33,7.33,0,0,0-.26-7.09l-6.76-11.26,14.75-14.75,11.26,6.76a7.38,7.38,0,0,0,7.09.26,58.42,58.42,0,0,1,7.79-3.2,7.32,7.32,0,0,0,4.8-5.19l3.2-12.76h20.85l3.2,12.76a7.3,7.3,0,0,0,4.8,5.19,58.42,58.42,0,0,1,7.79,3.2,7.3,7.3,0,0,0,7.09-.26l11.26-6.76,14.75,14.75-6.77,11.26a7.36,7.36,0,0,0-.25,7.09,59.21,59.21,0,0,1,3.2,7.79,7.33,7.33,0,0,0,5.19,4.81l12.77,3.2v20.84Z"/><path class="cls-1" d="M344.14,167.86a29.38,29.38,0,1,0,29.39,29.38A29.41,29.41,0,0,0,344.14,167.86Zm0,44.07a14.69,14.69,0,1,1,14.69-14.69A14.71,14.71,0,0,1,344.14,211.93Z"/><path class="cls-1" d="M182.55,256a44.07,44.07,0,1,0,44.07,44.07A44.12,44.12,0,0,0,182.55,256Zm0,73.45a29.38,29.38,0,1,1,29.38-29.38A29.4,29.4,0,0,1,182.55,329.45Z"/></g></g></svg>