<svg xmlns="http://www.w3.org/2000/svg" viewBox="0 0 512 512"><defs><style>.cls-1{fill:#fff;}</style></defs><title>Asset 6</title><g id="Layer_2" data-name="Layer 2"><g id="Layer_1-2" data-name="Layer 1"><path class="cls-1" d="M90.05,396a41.72,41.72,0,0,0-20.17,5.15A236.45,236.45,0,0,1,20,256C20,125.87,125.87,20,256,20a237.47,237.47,0,0,1,47,4.68,10,10,0,0,0,4-19.61A258.44,258.44,0,0,0,256,0,256,256,0,0,0,55.09,414.65a42,42,0,1,0,35-18.7Zm15.56,57.55A22,22,0,1,1,112.05,438,21.85,21.85,0,0,1,105.61,453.5Z"/><path class="cls-1" d="M456.9,97.34a41.93,41.93,0,1,0-14.78,13.56A236.47,236.47,0,0,1,492,256c0,130.13-105.87,236-236,236a237.49,237.49,0,0,1-46.55-4.59A10,10,0,1,0,205.52,507,258.24,258.24,0,0,0,256,512,256,256,0,0,0,456.9,97.34Zm-50.51-7.73A22,22,0,1,1,422,96.05,21.88,21.88,0,0,1,406.39,89.61Z"/><path class="cls-1" d="M348.08,37.82A10,10,0,1,0,341,34.89,10.08,10.08,0,0,0,348.08,37.82Z"/><path class="cls-1" d="M164.36,474.36a10,10,0,1,0,7.07,2.93A10.08,10.08,0,0,0,164.36,474.36Z"/><path class="cls-1" d="M94.54,264.28l77.36,65.87a12,12,0,0,0,15.5-18.21l-66.67-56.77L187.4,198.4a12,12,0,0,0-15.5-18.2L94.54,246.07a12,12,0,0,0,0,18.21Z"/><path class="cls-1" d="M323.25,328.8a11.94,11.94,0,0,0,16.85,1.35l77.36-65.87a12,12,0,0,0,0-18.21L340.1,180.2a12,12,0,1,0-15.5,18.2l66.67,56.77L324.6,311.94A12,12,0,0,0,323.25,328.8Z"/><path class="cls-1" d="M226.13,382.15a11.75,11.75,0,0,0,2.48.26,12,12,0,0,0,11.69-9.49L288.51,144a12,12,0,0,0-23.4-4.93L216.9,368A12,12,0,0,0,226.13,382.15Z"/></g></g></svg>