<svg xmlns="http://www.w3.org/2000/svg" viewBox="0 0 512 512"><defs><style>.cls-1{fill:#fff;}</style></defs><title>Asset 10</title><g id="Layer_2" data-name="Layer 2"><g id="Layer_1-2" data-name="Layer 1"><path class="cls-1" d="M90.05,396a41.72,41.72,0,0,0-20.17,5.15A236.45,236.45,0,0,1,20,256C20,125.87,125.87,20,256,20a237.47,237.47,0,0,1,47,4.68,10,10,0,0,0,4-19.61A258.44,258.44,0,0,0,256,0,256,256,0,0,0,55.09,414.65a42,42,0,1,0,35-18.7Zm15.56,57.55A22,22,0,1,1,112.05,438,21.85,21.85,0,0,1,105.61,453.5Z"/><path class="cls-1" d="M456.9,97.34a41.93,41.93,0,1,0-14.78,13.56A236.47,236.47,0,0,1,492,256c0,130.13-105.87,236-236,236a237.49,237.49,0,0,1-46.55-4.59A10,10,0,1,0,205.52,507,258.24,258.24,0,0,0,256,512,256,256,0,0,0,456.9,97.34Zm-50.51-7.73A22,22,0,1,1,422,96.05,21.88,21.88,0,0,1,406.39,89.61Z"/><path class="cls-1" d="M348.08,37.82A10,10,0,1,0,341,34.89,10.08,10.08,0,0,0,348.08,37.82Z"/><path class="cls-1" d="M164.36,474.36a10,10,0,1,0,7.07,2.93A10.08,10.08,0,0,0,164.36,474.36Z"/><path class="cls-1" d="M369.84,249.42a38.52,38.52,0,0,1,8.8-1.84,11.55,11.55,0,0,1,3.41,10.7L377,286.21c-.74,3.89-2.23,4.82-2.73,5.12a8.71,8.71,0,0,1-4.42,1ZM139.67,155.06a51.52,51.52,0,0,1,51.46-51.46H320.87a51.52,51.52,0,0,1,51.46,51.46v75.27A52.38,52.38,0,0,0,357,235.51V180.77a35.74,35.74,0,0,0-35.71-35.7H297a36.68,36.68,0,0,0-23.16,8.26l-2.38,1.95a24.39,24.39,0,0,1-30.86,0l-2.39-1.95A36.63,36.63,0,0,0,215,145.07H190.75a35.74,35.74,0,0,0-35.7,35.7v54.74a52.48,52.48,0,0,0-15.38-5.18V155.06Zm-1.92,136.28c-.5-.31-2-1.23-2.72-5.06l-5.09-28a11.6,11.6,0,0,1,3.41-10.71,39.25,39.25,0,0,1,8.81,1.84v42.91A8.82,8.82,0,0,1,137.75,291.34Zm179.5,87.14c-20.06,18.17-44.1,29.92-61.25,29.92s-41.19-11.75-61.25-29.92c-22-19.92-34.6-43-34.6-63.21l0-56.6h.35A12.55,12.55,0,0,0,173,246.14V180.77A17.75,17.75,0,0,1,190.75,163H215a18.65,18.65,0,0,1,11.78,4.2l2.38,1.95a42.37,42.37,0,0,0,53.62,0l2.37-1.95A18.68,18.68,0,0,1,297,163h24.27A17.75,17.75,0,0,1,339,180.77v65.37a12.51,12.51,0,0,0,7.71,11.57,12.67,12.67,0,0,0,5.18,1l0,56.6C351.85,335.52,339.24,358.56,317.25,378.48Zm-3,25.41a165.49,165.49,0,0,0,15-12.1c16.36-14.82,28.28-31.48,34.8-48.16l4.9-18a69.17,69.17,0,0,0,.8-10.38v-5a26.33,26.33,0,0,0,13.89-3.68c4-2.46,9.09-7.41,10.94-17.12l5.08-28a29.28,29.28,0,0,0-9.43-27.6V155.06q0-3.44-.33-6.79l-4.23-18a69.56,69.56,0,0,0-64.87-44.66H191.13a69.51,69.51,0,0,0-69.43,69.42V233.9a29.28,29.28,0,0,0-9.43,27.6l5.1,28.06c1.83,9.64,6.95,14.59,10.92,17.05a26.33,26.33,0,0,0,13.89,3.68v5c0,25.3,14.76,53.19,40.5,76.51a165.49,165.49,0,0,0,15,12.1l18,11c14.17,7.33,28.24,11.44,40.33,11.44s26.16-4.11,40.33-11.44Z"/></g></g></svg>