<svg xmlns="http://www.w3.org/2000/svg" viewBox="0 0 512 512"><defs><style>.cls-1,.cls-2{fill:#fff;}.cls-2{stroke:#fff;stroke-miterlimit:10;stroke-width:6px;}</style></defs><title>Asset 7</title><g id="Layer_2" data-name="Layer 2"><g id="Layer_1-2" data-name="Layer 1"><path class="cls-1" d="M90.05,396a41.72,41.72,0,0,0-20.17,5.15A236.45,236.45,0,0,1,20,256C20,125.87,125.87,20,256,20a237.47,237.47,0,0,1,47,4.68,10,10,0,0,0,4-19.61A258.44,258.44,0,0,0,256,0,256,256,0,0,0,55.09,414.65a42,42,0,1,0,35-18.7Zm15.56,57.55A22,22,0,1,1,112.05,438,21.85,21.85,0,0,1,105.61,453.5Z"/><path class="cls-1" d="M456.9,97.34a41.93,41.93,0,1,0-14.78,13.56A236.47,236.47,0,0,1,492,256c0,130.13-105.87,236-236,236a237.49,237.49,0,0,1-46.55-4.59A10,10,0,1,0,205.52,507,258.24,258.24,0,0,0,256,512,256,256,0,0,0,456.9,97.34Zm-50.51-7.73A22,22,0,1,1,422,96.05,21.88,21.88,0,0,1,406.39,89.61Z"/><path class="cls-1" d="M348.08,37.82A10,10,0,1,0,341,34.89,10.08,10.08,0,0,0,348.08,37.82Z"/><path class="cls-1" d="M164.36,474.36a10,10,0,1,0,7.07,2.93A10.08,10.08,0,0,0,164.36,474.36Z"/><path class="cls-1" d="M337,210.22a5.16,5.16,0,0,0-6.68-2.93L296,220.68A45.9,45.9,0,0,0,275.49,203l-.22-.09L286,178.58a5.16,5.16,0,1,0-9.44-4.15l-10.68,24.3-25.91-11.38-10.79-27.69a5.16,5.16,0,0,0-9.61,3.74l10.56,27.11a39.78,39.78,0,0,0-41.22,12.88l-14-35.92a5.16,5.16,0,0,0-9.61,3.74l15.86,40.7-40.36,15.73a5.15,5.15,0,1,0,3.74,9.6l35.58-13.86a39.83,39.83,0,0,0,18.41,39.08L171.37,273a5.16,5.16,0,0,0,3.75,9.61l27.68-10.78,25.92,11.38-10.8,24.6a5.15,5.15,0,0,0,9.44,4.14l10.8-24.59.21.09a45.94,45.94,0,0,0,26.68,3.16l13.49,34.61a5.16,5.16,0,0,0,9.61-3.74L275,287.66A46,46,0,0,0,300.46,230l33.63-13.1a5.15,5.15,0,0,0,2.93-6.68Zm-144.51,6.7a29.41,29.41,0,0,1,33.8-16.74l-23.26,52.95A29.41,29.41,0,0,1,192.51,216.92Zm50,61.1-32.81-14.41,12.34-28.09,65.27,28.67A35.88,35.88,0,0,1,242.52,278Zm49-23.27L226.2,226.08,238.53,198l32.81,14.41A35.88,35.88,0,0,1,291.47,254.75Z"/><path class="cls-2" d="M402.59,392.43l-68.86-67.86A129.69,129.69,0,0,0,237.31,107.9c-71.63,0-129.91,58.28-129.91,129.91a129.69,129.69,0,0,0,216.67,96.42l68.86,67.86a6.83,6.83,0,0,0,9.66-9.66ZM237.31,354.05A116.24,116.24,0,1,1,353.55,237.81,116.37,116.37,0,0,1,237.31,354.05Z"/></g></g></svg>