<svg xmlns="http://www.w3.org/2000/svg" viewBox="0 0 512 512"><defs><style>.cls-1,.cls-2{fill:#fff;}.cls-1{stroke:#fff;stroke-miterlimit:10;stroke-width:5px;}</style></defs><title>Asset 2</title><g id="Layer_2" data-name="Layer 2"><g id="Layer_1-2" data-name="Layer 1"><path class="cls-1" d="M256,148.33A107.67,107.67,0,1,0,363.67,256,107.79,107.79,0,0,0,256,148.33Zm54.19,186.46a95.61,95.61,0,0,1-108.38,0V297.05A23,23,0,0,1,222,274.24a44.87,44.87,0,0,0,67.93,0,23,23,0,0,1,20.23,22.81Zm12-9.82V297.05a35.12,35.12,0,0,0-35.07-35,6,6,0,0,0-4.85,2.46,32.64,32.64,0,0,1-52.62,0,6,6,0,0,0-4.85-2.46,35.13,35.13,0,0,0-35.08,35V325a95.66,95.66,0,1,1,132.47,0Z"/><path class="cls-1" d="M419.47,287.83l-17.32-14.94a151.27,151.27,0,0,0-1-40.32l16.67-16a6,6,0,0,0,1.35-6.76l-19-43.37a6,6,0,0,0-6-3.59l-23.06,1.7a136.22,136.22,0,0,0-29.23-27.85l.67-23a6,6,0,0,0-3.85-5.79l-44.14-17a6,6,0,0,0-6.73,1.68L272.9,109.86a150.92,150.92,0,0,0-40.33,1l-16-16.67a6,6,0,0,0-6.76-1.35l-43.37,19a6,6,0,0,0-3.59,6l1.7,23.07a135.71,135.71,0,0,0-27.84,29.23l-23-.68a6,6,0,0,0-5.79,3.85l-17,44.14a6,6,0,0,0,1.68,6.73l17.33,15a150.85,150.85,0,0,0,1,40.32l-16.67,16a6,6,0,0,0-1.34,6.76l19,43.36a6,6,0,0,0,6,3.6l23.07-1.7a136,136,0,0,0,29.23,27.84l-.68,23.05a6,6,0,0,0,3.85,5.79l44.15,17a6,6,0,0,0,6.72-1.68l15-17.33a150.85,150.85,0,0,0,40.32-1l16,16.66a6,6,0,0,0,6.76,1.35l43.37-19a6,6,0,0,0,3.59-6l-1.7-23.07a135.48,135.48,0,0,0,27.84-29.23l23.05.68a6,6,0,0,0,5.79-3.86l17-44.14A6,6,0,0,0,419.47,287.83Zm-25.06,42.56-22.07-.65a6,6,0,0,0-5.19,2.68,124,124,0,0,1-29.54,31,6,6,0,0,0-2.43,5.28l1.63,22.08-35.62,15.58L285.9,390.45a6,6,0,0,0-5.42-1.75,139.46,139.46,0,0,1-43.06,1.11,6,6,0,0,0-5.34,2l-14.26,16.53-36.21-14,.64-22.07a6,6,0,0,0-2.67-5.18,124.19,124.19,0,0,1-31-29.55,6,6,0,0,0-5.28-2.43l-22.08,1.63-15.58-35.62,15.94-15.28a6,6,0,0,0,1.75-5.43,139.46,139.46,0,0,1-1.11-43.06,6,6,0,0,0-2-5.34l-16.54-14.27,14-36.21,22.07.65a6,6,0,0,0,5.18-2.68,124.32,124.32,0,0,1,29.55-31,6,6,0,0,0,2.42-5.28l-1.62-22.09L210.8,105.6l15.29,15.94a6,6,0,0,0,5.43,1.76,139.21,139.21,0,0,1,43.07-1.11,6,6,0,0,0,5.34-2l14.26-16.54,36.21,14-.65,22.07a6,6,0,0,0,2.68,5.19,124.15,124.15,0,0,1,31,29.55,6,6,0,0,0,5.29,2.42l22.08-1.62L406.4,210.8l-15.94,15.29a6,6,0,0,0-1.76,5.43,139.15,139.15,0,0,1,1.12,43.06,6,6,0,0,0,2,5.33l16.53,14.27Z"/><path class="cls-1" d="M256,184.57a38.25,38.25,0,1,0,38.24,38.24A38.25,38.25,0,0,0,256,184.57ZM256,249a26.21,26.21,0,1,1,26.2-26.21A26.2,26.2,0,0,1,256,249Z"/><path class="cls-2" d="M90.05,396a41.72,41.72,0,0,0-20.17,5.15A236.45,236.45,0,0,1,20,256C20,125.87,125.87,20,256,20a237.47,237.47,0,0,1,47,4.68,10,10,0,0,0,4-19.61A258.44,258.44,0,0,0,256,0,256,256,0,0,0,55.09,414.65a42,42,0,1,0,35-18.7Zm15.56,57.55A22,22,0,1,1,112.05,438,21.85,21.85,0,0,1,105.61,453.5Z"/><path class="cls-2" d="M456.9,97.34a41.93,41.93,0,1,0-14.78,13.56A236.47,236.47,0,0,1,492,256c0,130.13-105.87,236-236,236a237.49,237.49,0,0,1-46.55-4.59A10,10,0,1,0,205.52,507,258.24,258.24,0,0,0,256,512,256,256,0,0,0,456.9,97.34Zm-50.51-7.73A22,22,0,1,1,422,96.05,21.88,21.88,0,0,1,406.39,89.61Z"/><path class="cls-2" d="M348.08,37.82A10,10,0,1,0,341,34.89,10.08,10.08,0,0,0,348.08,37.82Z"/><path class="cls-2" d="M164.36,474.36a10,10,0,1,0,7.07,2.93A10.08,10.08,0,0,0,164.36,474.36Z"/></g></g></svg>