<svg xmlns="http://www.w3.org/2000/svg" xmlns:xlink="http://www.w3.org/1999/xlink" viewBox="0 0 209.55 187.73"><defs><style>.cls-1{fill:url(#linear-gradient);}.cls-2{fill:url(#linear-gradient-2);}</style><linearGradient id="linear-gradient" x1="157.16" y1="1290.82" x2="157.16" y2="1103.11" gradientTransform="translate(209.55 1290.82) rotate(180)" gradientUnits="userSpaceOnUse"><stop offset="0" stop-color="#4498f9"/><stop offset="0.72" stop-color="#235fa4"/></linearGradient><linearGradient id="linear-gradient-2" x1="52.39" y1="1290.82" x2="52.39" y2="1103.09" xlink:href="#linear-gradient"/></defs><title>Asset 1</title><g id="Layer_2" data-name="Layer 2"><g id="Layer_1-2" data-name="Layer 1"><g id="Layer_2-2" data-name="Layer 2-2"><path class="cls-1" d="M87.86,8.33c-.44-.46-.94-1-1.44-1.46a25.42,25.42,0,0,0-35.29.51L51,7.54,1.11,64.46l-.27.27a3.06,3.06,0,0,0-.53.84l-.13.32-.11.39A4.39,4.39,0,0,0,0,67V184.43a3.28,3.28,0,0,0,3.28,3.28h98.1a3.44,3.44,0,0,0,3.4-3.44V184h0V111.16a2.57,2.57,0,0,0-2.56-2.57H101a28,28,0,0,0-26.8,28v20.57H33.91a3.42,3.42,0,0,1-3.24-2.78,2.76,2.76,0,0,1-.06-.57h0V79.12a3,3,0,0,1,.24-1,3.3,3.3,0,0,1,.5-.76L87.44,14.23h0l.44-.44.46-.46a3.24,3.24,0,0,0,.72-1.53,3.7,3.7,0,0,0,.07-.66c0-.2,0-.41,0-.61a3.63,3.63,0,0,0-.74-1.59Z"/><path class="cls-2" d="M209.38,121.83c0-.09.1-.36.1-.36a4.39,4.39,0,0,0,.07-.72V3.28A3.28,3.28,0,0,0,206.27,0h-98.1a3.45,3.45,0,0,0-3.39,3.5V76.55a2.57,2.57,0,0,0,2.56,2.57h1.18a28,28,0,0,0,26.79-27.91V30.55h40.35a3.42,3.42,0,0,1,3.24,2.78,2.76,2.76,0,0,1,.06.57v74.69a2.11,2.11,0,0,1-.74,1.71l-56.1,63.21-.44.44-.46.46a3.19,3.19,0,0,0-.72,1.53,3,3,0,0,0-.09.66,4.1,4.1,0,0,0,0,.61,3.42,3.42,0,0,0,.74,1.59l.35.4a21,21,0,0,0,1.61,1.66,25.42,25.42,0,0,0,35.29-.51l.16-.16,49.86-56.9.27-.27a3.06,3.06,0,0,0,.53-.84S209.35,121.92,209.38,121.83Z"/></g></g></g></svg>